<svg xmlns="http://www.w3.org/2000/svg"  viewBox="0 0 48 48" width="40px" height="40px" class="svg"><path fill="#c60b1e" d="M2,11.4c14.7-5,29.3,5,44,0c0,8.4,0,16.7,0,25.1c-14.7,5-29.3-5-44,0C2,28.2,2,19.8,2,11.4z"/><path fill="#ffc400" d="M2,17.7c14.7-5,29.3,5,44,0c0,4.2,0,8.4,0,12.6c-14.7,5-29.3-5-44,0C2,26.1,2,21.9,2,17.7z"/><path fill="#ad1519" d="M13,21.2C13,21.2,12.9,21.2,13,21.2c-0.1,0-0.1-0.1-0.1-0.1c0,0,0,0,0,0c0,0,0,0,0,0c0,0,0-0.1,0-0.1 s0-0.1,0.1-0.1c0,0,0.1,0,0.1,0s0,0,0.1,0c0,0,0.1,0,0.1,0s0,0,0,0c0,0,0,0,0,0c0,0,0,0,0.1,0c0,0,0.1,0,0.1,0c0,0,0.1,0,0.1,0 s0.1,0,0.1,0s0,0,0.1,0c0,0,0.1,0,0.1,0c0,0,0.1,0,0.1,0c0,0,0.1,0,0.1,0c0,0,0,0,0.1,0.1c0,0,0,0,0,0.1c0,0,0,0,0,0.1 c0,0,0,0,0,0c0,0,0,0,0,0c0,0,0,0,0,0c0,0,0,0-0.1,0c0,0-0.3-0.1-0.4-0.1C13.2,21.2,13,21.2,13,21.2L13,21.2L13,21.2z"/><path fill="#c8b100" d="M13.4,21.4c0.1,0,0.3,0,0.3,0c0,0,0.1,0,0.1,0c0,0,0,0,0,0c-0.1,0-0.2-0.1-0.4-0.1c-0.1,0-0.3,0-0.4,0 c0,0,0,0,0,0c0,0,0,0,0.1,0C13.1,21.4,13.2,21.4,13.4,21.4z"/><path fill="#c8b100" d="M13.9,21.1C13.9,21.1,13.9,21.1,13.9,21.1C13.9,21.1,13.9,21.1,13.9,21.1C13.9,21.1,13.9,21.1,13.9,21.1 C13.9,21.1,13.9,21.2,13.9,21.1L13.9,21.1C13.9,21.2,13.9,21.2,13.9,21.1C13.9,21.2,13.9,21.2,13.9,21.1c-0.1,0-0.1,0-0.1,0 c0,0,0,0,0,0c0,0,0,0,0,0C13.8,21.2,13.8,21.2,13.9,21.1c-0.1,0.1-0.1,0.1-0.1,0.1c0,0,0,0,0,0c0,0,0,0,0,0c0,0,0,0,0,0 c0,0,0,0,0,0c0,0,0,0,0,0s0,0,0,0c0,0,0,0,0,0c0,0,0,0,0,0c0,0,0,0,0,0c0,0-0.1,0-0.1-0.1c0,0,0,0,0,0c0,0,0,0,0,0c0,0,0,0,0,0 c0,0,0,0,0.1,0c0,0,0,0,0,0c0,0,0,0,0,0c0,0,0,0-0.1,0c0,0,0,0,0,0c0,0,0,0,0-0.1c0,0,0,0,0,0c0.1-0.1,0.1-0.1,0.1-0.1 c0,0,0,0,0,0c-0.1,0-0.2,0-0.3,0.2c0,0,0,0,0,0c0,0,0,0,0,0c0,0,0,0,0,0c0,0,0,0,0,0c0,0,0,0-0.1,0c0,0,0,0,0-0.1c0,0,0,0,0,0 c0,0,0-0.1,0-0.1c0-0.1,0-0.1-0.1-0.1c0,0,0,0,0,0c0,0,0,0,0,0c0,0,0,0,0,0c0,0,0,0,0,0c0,0,0,0,0,0c0,0,0,0,0,0c0,0,0,0,0,0 c0,0,0,0,0,0c0,0,0,0,0,0c0,0,0,0,0,0c0,0,0,0,0,0c0,0,0,0,0,0c0,0,0,0,0,0c0,0,0,0,0,0c0,0,0,0,0,0c0,0,0,0,0,0.1c0,0,0,0,0,0 c0,0,0,0,0,0c0,0,0,0,0,0c0,0,0,0,0,0c0,0,0,0,0,0c0,0-0.1,0.1-0.1,0.1c0,0,0,0.1,0,0.1c0,0,0,0,0,0c0,0,0,0,0,0.1l0,0 c0,0,0,0-0.1,0c0,0,0,0,0,0c0,0,0,0,0,0c0,0,0,0,0,0c0,0,0,0,0,0c-0.1-0.1-0.2-0.2-0.3-0.2c0,0,0,0,0,0c0,0,0.1,0,0.1,0.1 c0,0,0,0,0,0c0,0,0,0,0,0.1l0,0c0,0,0,0-0.1,0c0,0,0,0,0,0c0,0,0,0,0,0c0,0,0,0,0.1,0c0,0,0,0,0,0c0,0,0,0,0,0c0,0,0,0,0,0 c0,0,0,0-0.1,0c0,0,0,0,0,0c0,0,0,0,0,0c0,0,0,0,0,0c0,0,0,0,0,0c0,0,0,0,0,0c0,0,0,0,0,0c0,0,0,0,0,0c0,0,0,0,0,0c0,0,0,0,0,0 c0,0,0,0,0,0c0,0,0,0,0,0c0,0,0,0,0,0c0,0,0,0,0,0c0,0,0,0-0.1,0c0,0,0,0,0,0c0,0,0,0,0,0c0,0,0,0,0,0c0,0,0,0,0,0c0,0,0,0,0,0 c0,0,0,0,0,0c0,0,0,0,0,0c0,0,0,0,0,0c0,0,0,0,0,0c0,0,0,0,0,0c0,0,0,0,0,0c0,0,0,0,0,0c0,0,0,0,0,0c0,0,0,0,0,0c0,0,0,0,0.1,0.1 c0,0,0,0,0.1,0c0,0,0,0,0,0c0,0,0,0,0,0c0,0,0,0,0,0c0,0,0,0,0,0c0,0,0,0,0,0c0,0,0,0,0,0c0,0,0,0,0,0.1c0,0,0,0,0,0 c0.1,0,0.2,0,0.4,0s0.3,0,0.4,0c0,0,0,0,0,0c0,0,0,0,0,0h0c0,0,0,0,0,0c0,0,0,0,0,0c0,0,0,0,0,0c0,0,0,0,0,0c0,0,0,0,0,0 c0,0,0,0,0,0c0,0,0,0,0.1,0C13.9,21.2,13.9,21.2,13.9,21.1C13.9,21.2,13.9,21.2,13.9,21.1C13.9,21.2,13.9,21.2,13.9,21.1 C13.9,21.2,13.9,21.2,13.9,21.1C13.9,21.2,13.9,21.2,13.9,21.1C14,21.1,14,21.1,13.9,21.1C14,21.1,14,21.1,13.9,21.1z M12.9,21.1 L12.9,21.1C12.9,21.1,12.9,21.1,12.9,21.1C12.9,21.1,12.9,21.1,12.9,21.1z"/><path fill="#ad1519" d="M13.4,21.4c-0.1,0-0.2,0-0.3,0C13.1,21.3,13.2,21.3,13.4,21.4c0.1-0.1,0.2,0,0.3,0 C13.6,21.4,13.5,21.4,13.4,21.4z"/><path fill="#005bbf" d="M14.2,26.7c-0.1,0-0.2,0-0.2-0.1c-0.1,0-0.1,0-0.2-0.1c-0.1,0-0.2,0-0.2,0c-0.1,0-0.1,0-0.2,0 c-0.1,0-0.2,0-0.2-0.1c-0.1,0-0.1,0-0.2,0c-0.1,0-0.2,0-0.2,0c-0.1,0-0.1,0-0.2,0c0,0,0,0.1,0,0.1c0.1,0,0.2,0,0.2,0 c0.1,0,0.1,0,0.2,0c0.1,0,0.1,0,0.2,0c0.1,0,0.1,0.1,0.2,0.1c0.1,0,0.2,0,0.2,0c0.1,0,0.1,0,0.2,0c0.1,0,0.2,0,0.2,0.1 c0.1,0,0.1,0.1,0.2,0.1C14.2,26.8,14.2,26.7,14.2,26.7L14.2,26.7z"/><path fill="#ccc" d="M14.2,26.8c-0.1,0-0.2,0-0.2-0.1c-0.1,0-0.1,0-0.2-0.1c-0.1,0-0.2,0-0.2,0s-0.1,0-0.2,0c-0.1,0-0.2,0-0.2-0.1 c-0.1,0-0.1,0-0.2,0c-0.1,0-0.2,0-0.2,0c-0.1,0-0.1,0-0.2,0c0,0,0,0.1,0,0.1c0.1,0,0.2,0,0.2,0c0.1,0,0.1,0,0.2,0 c0.1,0,0.1,0,0.2,0c0.1,0,0.1,0.1,0.2,0.1c0.1,0,0.2,0,0.2,0c0.1,0,0.1,0,0.2,0c0.1,0,0.2,0,0.2,0.1c0.1,0,0.1,0.1,0.2,0.1 C14.2,26.9,14.2,26.9,14.2,26.8"/><path fill="#005bbf" d="M14.2,26.9c-0.1,0-0.2,0-0.2-0.1c-0.1,0-0.1,0-0.2-0.1c-0.1,0-0.2,0-0.2,0s-0.1,0-0.2,0c-0.1,0-0.2,0-0.2-0.1 c-0.1,0-0.1,0-0.2,0c-0.1,0-0.2,0-0.2,0c-0.1,0-0.1,0-0.2,0c0,0,0,0.1,0,0.1c0.1,0,0.2,0,0.2,0c0.1,0,0.1,0,0.2,0 c0.1,0,0.1,0,0.2,0c0.1,0,0.1,0.1,0.2,0.1c0.1,0,0.2,0,0.2,0s0.1,0,0.2,0c0.1,0,0.2,0,0.2,0.1c0.1,0,0.1,0.1,0.2,0.1 C14.2,27,14.2,27,14.2,26.9"/><path fill="#ccc" d="M14.2,27.2c-0.1,0-0.2,0-0.2-0.1c-0.1,0-0.1,0-0.2-0.1c-0.1,0-0.2,0-0.2,0c-0.1,0-0.1,0-0.2,0 c-0.1,0-0.2,0-0.2-0.1c-0.1,0-0.1,0-0.2,0c-0.1,0-0.2,0-0.2,0c-0.1,0-0.1,0-0.2,0c0,0,0-0.1,0-0.1c0.1,0,0.2,0,0.2,0 c0.1,0,0.1,0,0.2,0c0.1,0,0.1,0,0.2,0c0.1,0,0.1,0.1,0.2,0.1c0.1,0,0.2,0,0.2,0s0.1,0,0.2,0c0.1,0,0.2,0,0.2,0.1 c0.1,0,0.1,0.1,0.2,0.1C14.2,27.1,14.2,27.1,14.2,27.2"/><path fill="#005bbf" d="M14.2,27.3c-0.1,0-0.2,0-0.2-0.1c-0.1,0-0.1,0-0.2-0.1c-0.1,0-0.2,0-0.2,0s-0.1,0-0.2,0c-0.1,0-0.2,0-0.2-0.1 c-0.1,0-0.1,0-0.2,0c-0.1,0-0.2,0-0.2,0c-0.1,0-0.1,0-0.2,0c0,0,0-0.1,0-0.1c0.1,0,0.2,0,0.2,0c0.1,0,0.1,0,0.2,0 c0.1,0,0.1,0,0.2,0c0.1,0,0.1,0.1,0.2,0.1c0.1,0,0.2,0,0.2,0c0.1,0,0.1,0,0.2,0c0.1,0,0.2,0,0.2,0.1c0.1,0,0.1,0.1,0.2,0.1 C14.2,27.2,14.2,27.3,14.2,27.3L14.2,27.3z"/><path fill="#c8b100" d="M12.9,26.1C12.9,26.1,12.9,26.2,12.9,26.1c0,0.1-0.1,0.2-0.1,0.2c0.4,0,0.8,0,1.2,0.1c-0.1,0-0.1-0.1-0.1-0.1 c0,0,0,0,0,0c0,0,0,0,0,0C13.5,26.2,13.2,26.2,12.9,26.1C12.9,26.1,12.9,26.1,12.9,26.1z"/><path fill="#c8b100" d="M12.9,26.1c0.3,0,0.6,0,0.9,0c0,0,0.1,0,0.1,0s0,0-0.1,0C13.5,26.2,13.2,26.2,12.9,26.1 C12.9,26.1,12.9,26.1,12.9,26.1C12.9,26.1,12.9,26.1,12.9,26.1z"/><path fill="#c8b100" d="M12.8,26.6c0.4,0,0.8,0,1.2,0.1c0-0.1,0-0.2,0-0.3c-0.4,0-0.8,0-1.2-0.1C12.8,26.4,12.8,26.5,12.8,26.6z"/><path fill="#ccc" d="M12.9,26c0.3,0,0.6,0,0.9,0c0-1.3,0-2.7,0-4c-0.3,0-0.6,0-0.9,0C12.9,23.4,12.9,24.7,12.9,26z"/><path fill="#c8b100" d="M14,21.5c-0.4,0-0.8,0-1.2-0.1c0,0.1,0,0.2,0,0.3c0,0,0.1,0,0.1,0c0,0-0.1,0-0.1,0c0,0,0,0,0.1,0 c0,0,0,0,0,0c0,0,0,0,0,0c0,0,0.1,0,0.1,0.1c0,0,0,0.1-0.1,0.1c0,0,0,0,0,0c0.3,0,0.6,0,0.9,0c0,0,0,0,0,0c0,0-0.1,0-0.1-0.1 s0-0.1,0.1-0.1c0,0,0,0,0,0c0,0,0.1,0,0.1,0c0,0,0,0-0.1,0c0.1,0,0.1,0,0.1,0C14,21.7,14,21.6,14,21.5z"/><path fill="#c8b100" d="M12.9,21.9C12.9,21.9,12.9,21.9,12.9,21.9C12.9,22,12.9,22,12.9,21.9c0.3,0.1,0.6,0.1,0.9,0.1 c0,0,0.1,0,0.1,0s0,0-0.1,0C13.5,21.9,13.2,21.9,12.9,21.9z"/><path fill="#ad1519" d="M12.7,25c-0.1,0.1-0.2,0.1-0.2,0.2c0,0,0,0.1,0.1,0.1c0.1,0.1,0.1,0.2,0.1,0.2c0.1-0.1,0.1-0.1,0.1-0.2 C12.8,25.2,12.7,25.1,12.7,25z"/><path fill="#ad1519" d="M14.7,23.6c-0.2-0.1-0.5-0.2-0.9-0.2c-0.1,0-0.3,0-0.4,0c-0.5,0.1-0.9,0.2-0.9,0.4c0,0,0,0,0,0 c0,0-0.2-0.4-0.2-0.4c0-0.2,0.4-0.4,1-0.4c0.2,0,0.4,0,0.5,0c0.4,0,0.7,0.1,0.9,0.2C14.7,23.3,14.7,23.5,14.7,23.6"/><path fill="#ad1519" d="M12.9,24c-0.2,0-0.4-0.1-0.4-0.2c0-0.1,0.1-0.2,0.2-0.2c0.1,0,0.1,0,0.2,0C12.9,23.8,12.9,23.9,12.9,24"/><path fill="#ad1519" d="M13.8,23.8c0.1,0,0.3,0.1,0.3,0.1c0,0,0,0,0,0c0,0.1-0.1,0.2-0.3,0.3C13.8,24,13.8,23.9,13.8,23.8"/><path fill="#ad1519" d="M12.4,24.8c0-0.1,0.2-0.2,0.5-0.3c0.2,0,0.3-0.1,0.4-0.1c0.5-0.2,0.8-0.4,0.8-0.4c0,0,0,0,0,0 c0,0,0.1,0.4,0.1,0.4c0,0.1-0.3,0.3-0.7,0.4c-0.1,0.1-0.4,0.1-0.6,0.2c-0.2,0.1-0.5,0.2-0.5,0.3C12.4,25,12.4,24.9,12.4,24.8 L12.4,24.8L12.4,24.8z"/><path fill="#ad1519" d="M17.3,19.6c0.4,0,0.7,0.1,0.9,0.2c0.1,0.1,0.3,0.1,0.4,0.2c0.1,0,0.3,0.1,0.4,0.1c0.1,0,0.4,0.1,0.6,0.2 c0.2,0.1,0.3,0.2,0.4,0.3c0,0-0.1,0-0.1,0.1c0,0.1,0,0.1,0,0.2c-0.1,0.1-0.2,0.1-0.2,0.2c0,0-0.1,0-0.1,0.1 c-0.1,0.1-0.2,0.1-0.3,0.2c0,0-0.1,0-0.1,0c0,0,0,0.1,0,0.1c-0.6-0.1-1.2-0.3-1.8-0.4c-0.6,0-1.2,0-1.8,0c0,0,0-0.1,0-0.1 c0,0-0.1,0-0.1,0c-0.1-0.1-0.2-0.2-0.3-0.2c0,0-0.1-0.1-0.1-0.1c-0.1-0.1-0.2-0.2-0.2-0.3c0-0.1,0-0.1,0-0.2c0,0-0.1-0.1-0.1-0.1 c0.1-0.1,0.2-0.2,0.4-0.2c0.2-0.1,0.4-0.1,0.6-0.1c0.1,0,0.2,0,0.4,0c0.2,0,0.3,0,0.4-0.1C16.7,19.6,17,19.5,17.3,19.6L17.3,19.6z"/><path fill="#c8b100" d="M16,19.9C16,19.9,16.1,19.9,16,19.9c0.1,0,0.1,0,0.2-0.1c-0.1-0.1-0.2-0.2-0.2-0.3c0,0,0,0,0,0 c0-0.2,0.3-0.4,0.7-0.3c0.2,0,0.4,0.1,0.5,0.2c0,0,0-0.1,0-0.1C17,19.1,16.8,19,16.7,19c-0.4,0-0.7,0.1-0.7,0.4c0,0,0,0,0,0 C15.9,19.6,16,19.7,16,19.9C16.1,19.8,16,19.8,16,19.9"/><path fill="#c8b100" d="M16,19.9c-0.1-0.1-0.2-0.3-0.2-0.4c0-0.2,0.1-0.3,0.3-0.4c-0.1,0.1-0.2,0.2-0.2,0.3c0,0,0,0,0,0 C15.9,19.6,16,19.7,16,19.9C16.1,19.8,16,19.8,16,19.9"/><path fill="#c8b100" d="M14.8,19.9c-0.1-0.1-0.1-0.2-0.1-0.3c0-0.1,0-0.1,0-0.2c0.1-0.2,0.5-0.3,0.9-0.3c0.1,0,0.2,0,0.3,0.1 c0,0,0,0-0.1,0.1c-0.1,0-0.2,0-0.3-0.1c-0.4,0-0.7,0.1-0.8,0.3c0,0,0,0.1,0,0.2c0,0.1,0.1,0.2,0.1,0.3c0,0.1-0.1,0.1-0.1,0.2 c0,0-0.1,0-0.1-0.1C14.7,20,14.8,20,14.8,19.9L14.8,19.9z"/><path fill="#c8b100" d="M14.9,19.2c-0.1,0.1-0.2,0.1-0.2,0.2c0,0.1,0,0.1,0,0.2c0,0.1,0,0.2,0.1,0.3c0,0-0.1,0.1-0.1,0.1 c-0.1-0.1-0.1-0.2-0.1-0.3C14.6,19.5,14.7,19.3,14.9,19.2L14.9,19.2z"/><path fill="#c8b100" d="M17.3,19c0.1,0,0.2,0.1,0.2,0.2c0,0.1,0,0.2,0,0.2c0,0,0,0,0,0c0,0,0,0,0,0c0,0.2,0,0.3,0.1,0.4 c-0.1,0.1-0.2,0.1-0.3,0.2c-0.1-0.1-0.2-0.2-0.3-0.3c0-0.1,0.1-0.2,0.1-0.4c0,0,0,0,0,0s0,0,0,0c0-0.1,0-0.2,0-0.2 C17.2,19,17.2,19,17.3,19L17.3,19z"/><path fill="#c8b100" d="M17.3,19.1c0,0,0.1,0,0.1,0.1c0,0.1,0,0.1,0,0.2c0,0,0,0,0,0c0,0,0,0,0,0c0,0.2,0,0.3,0.1,0.4 c-0.1,0-0.1,0.1-0.2,0.1c-0.1-0.1-0.1-0.1-0.2-0.2c0-0.1,0.1-0.2,0.1-0.4c0,0,0,0,0,0c0,0,0,0,0,0c0-0.1,0-0.2,0-0.2 C17.2,19.1,17.3,19.1,17.3,19.1z"/><path fill="#c8b100" d="M18.7,20.2C18.6,20.2,18.6,20.2,18.7,20.2c-0.1,0-0.1-0.1-0.2-0.1c0.1-0.1,0.2-0.2,0.2-0.3c0,0,0,0,0,0 c0-0.2-0.3-0.4-0.7-0.5c-0.2,0-0.4,0-0.5,0.1c0,0,0-0.1,0-0.1c0.1-0.1,0.3-0.1,0.5-0.1c0.4,0.1,0.7,0.3,0.7,0.6c0,0,0,0,0,0 C18.8,19.9,18.7,20,18.7,20.2C18.6,20.1,18.6,20.2,18.7,20.2"/><path fill="#c8b100" d="M18.6,20.2c0.1-0.1,0.2-0.2,0.2-0.3c0-0.2-0.1-0.3-0.3-0.5c0.1,0.1,0.2,0.2,0.2,0.3c0,0,0,0,0,0 C18.8,19.9,18.7,20,18.6,20.2C18.6,20.1,18.6,20.2,18.6,20.2"/><path fill="#c8b100" d="M19.9,20.6c0.1-0.1,0.1-0.2,0.1-0.3c0-0.1,0-0.1,0-0.2c-0.1-0.2-0.5-0.5-0.9-0.5c-0.1,0-0.2,0-0.3,0 c0,0,0,0.1,0.1,0.1c0.1,0,0.2,0,0.3,0c0.4,0.1,0.7,0.2,0.8,0.5c0,0.1,0,0.1,0,0.2c0,0.1-0.1,0.2-0.1,0.3c0,0.1,0.1,0.2,0.1,0.2 c0,0,0,0,0.1,0C19.9,20.7,19.9,20.6,19.9,20.6z"/><path fill="#c8b100" d="M19.7,19.8c0.1,0.1,0.2,0.2,0.2,0.3c0,0.1,0,0.1,0,0.2c0,0.1,0,0.2-0.1,0.3c0,0,0.1,0.1,0.1,0.1 c0.1-0.1,0.1-0.2,0.1-0.3C20.1,20.2,20,20,19.7,19.8L19.7,19.8z"/><path fill="#005bbf" d="M17.3,18.6c0.1,0,0.2,0.1,0.2,0.2c0,0.1-0.1,0.2-0.2,0.2s-0.2-0.1-0.2-0.2S17.2,18.6,17.3,18.6z"/><path fill="#c8b100" d="M17.3,18.2c0,0,0,0.1,0,0.1c0,0-0.1,0-0.1,0c0,0,0,0.1,0,0.1c0,0,0.1,0,0.1,0c0,0.1,0,0.1,0,0.2 c0,0.1,0,0.1,0,0.2c-0.1,0-0.1,0-0.2,0c0,0,0,0,0,0c0,0,0,0.1,0,0.1c0,0,0,0,0,0c0.1,0,0.3,0,0.4,0.1c0,0,0,0,0,0c0,0,0-0.1,0-0.1 c0,0,0,0,0,0c-0.1,0-0.1,0-0.2,0c0-0.1,0-0.1,0-0.2c0-0.1,0-0.1,0-0.2c0,0,0.1,0,0.1,0c0,0,0-0.1,0-0.1c0,0-0.1,0-0.1,0 c0,0,0-0.1,0-0.1C17.4,18.2,17.3,18.2,17.3,18.2L17.3,18.2z"/><path fill="#c8b100" d="M17.3,21.8c-0.7-0.1-1.2-0.2-1.7-0.4c0,0,0,0,0-0.1c0,0,0,0,0-0.1c0.4-0.1,1-0.1,1.7,0 c0.7,0.1,1.2,0.2,1.7,0.4c0,0,0,0,0,0.1c0,0,0,0.1,0,0.1C18.6,21.9,18,21.8,17.3,21.8"/><path fill="#c8b100" d="M17.3,21.3c-0.7-0.1-1.3-0.1-1.7,0c0,0,0-0.1,0-0.2C15.6,21,15.5,21,15.5,21c0.5-0.1,1.1-0.1,1.8,0 c0.7,0.1,1.4,0.3,1.8,0.5c0,0-0.1,0-0.1,0.1c0,0.1,0,0.1,0,0.2C18.6,21.5,18,21.3,17.3,21.3"/><path fill="#c8b100" d="M17.3,21c-0.7-0.1-1.4-0.1-1.8,0c0,0-0.1,0-0.1,0c0,0,0-0.1,0-0.1c0.5-0.1,1.1-0.1,1.9,0 c0.7,0.1,1.4,0.3,1.9,0.5c0,0,0,0,0,0.1s0,0-0.1,0C18.7,21.2,18.1,21.1,17.3,21"/><path fill="#c8b100" d="M17.3,20.4C17.4,20.5,17.4,20.5,17.3,20.4C17.4,20.5,17.4,20.5,17.3,20.4c0.1,0.2,0.2,0.3,0.3,0.4 c0.1,0,0.2,0,0.2-0.1c0,0,0-0.1,0-0.1c0,0,0,0.1,0,0.1c0,0.1,0.1,0.2,0.3,0.2c0.1,0,0.3-0.1,0.3-0.2c0,0,0,0,0,0 c0,0,0.1,0,0.1-0.1c0,0,0,0.1,0,0.1c0,0,0,0.1,0,0.1c0,0.1,0.1,0.2,0.3,0.3c0.1,0,0.2,0,0.2-0.1c0,0,0,0,0.1-0.1c0,0,0,0.1,0,0.1 c0,0.1,0,0.2,0.1,0.2c0,0,0.1,0,0.2-0.1c0.1-0.1,0.2-0.1,0.2-0.1c0,0,0,0.1,0,0.1c0,0-0.1,0.1-0.2,0.2c-0.1,0-0.2,0-0.2,0 c-0.1,0-0.1-0.1-0.2-0.2c-0.1,0-0.1,0-0.2,0c-0.1,0-0.3-0.1-0.3-0.2C18.4,21,18.3,21,18.2,21c-0.1,0-0.2-0.1-0.3-0.2 c-0.1,0-0.2,0.1-0.3,0.1c-0.1,0-0.3-0.1-0.3-0.2c-0.1,0.1-0.2,0.1-0.3,0.1c-0.1,0-0.2-0.1-0.3-0.1c-0.1,0.1-0.2,0.1-0.3,0.1 c-0.1,0-0.2-0.1-0.3-0.1c-0.1,0.1-0.2,0.2-0.3,0.2c-0.1,0-0.1,0-0.2-0.1c0,0.1-0.1,0.1-0.2,0.1c-0.1,0-0.2,0-0.2-0.1 c-0.1-0.1-0.2-0.2-0.2-0.2c0,0,0-0.1,0-0.1c0,0,0.1,0.1,0.2,0.2c0.1,0.1,0.2,0.1,0.2,0.1c0.1,0,0.1-0.1,0.1-0.1c0,0,0-0.1,0-0.1 c0,0,0,0,0.1,0.1c0,0.1,0.1,0.1,0.2,0.1c0.1,0,0.3-0.1,0.3-0.2c0,0,0-0.1,0-0.1c0,0,0-0.1,0-0.1c0,0,0.1,0.1,0.1,0.1c0,0,0,0,0,0 c0,0.1,0.1,0.2,0.3,0.3c0.1,0,0.2-0.1,0.3-0.2c0,0,0-0.1,0-0.1c0,0,0,0.1,0,0.1c0,0.1,0.1,0.2,0.3,0.2 C17.2,20.7,17.3,20.7,17.3,20.4C17.3,20.5,17.3,20.5,17.3,20.4C17.3,20.4,17.3,20.4,17.3,20.4"/><path fill="#c8b100" d="M15.1,20.5C15.1,20.5,15.1,20.5,15.1,20.5c-0.1-0.1-0.1-0.1-0.2-0.1c0,0,0,0,0,0c0,0-0.1-0.1-0.1-0.1 c-0.1,0-0.2,0-0.2,0c0-0.1,0.1-0.1,0.2-0.1c0.1,0,0.1,0,0.1,0.1c0,0,0,0,0-0.1c0,0,0.1,0,0.1,0.1C15.1,20.3,15,20.4,15.1,20.5 c-0.1-0.1-0.1-0.1,0-0.2c0,0,0.1-0.1,0.1-0.1s0.1,0,0.1,0s0,0,0,0c0,0,0,0,0,0c0.1,0,0.1,0,0.2,0c0,0-0.1,0.1-0.1,0.1c0,0,0,0,0,0 c0,0,0,0,0,0s0,0-0.1,0S15.2,20.6,15.1,20.5C15.2,20.5,15.1,20.5,15.1,20.5"/><path fill="#ad1519" d="M14.9,20.5c0,0,0.1,0,0.1,0c0,0,0.1,0.1,0,0.1c0,0-0.1,0-0.1,0C14.9,20.5,14.9,20.5,14.9,20.5"/><path fill="#c8b100" d="M16.1,20.4C16,20.4,16,20.4,16.1,20.4c0-0.1,0-0.1,0-0.1c0,0,0,0-0.1,0c0,0-0.1,0-0.1,0c0,0-0.1,0-0.1,0 s0,0,0,0c0,0,0,0,0,0c-0.1,0-0.1,0-0.2,0.1c0.1,0,0.1,0.1,0.2,0.1c0,0,0,0,0,0c0,0,0,0,0,0c0,0,0,0,0.1,0S15.9,20.5,16.1,20.4 C16,20.4,16.1,20.4,16.1,20.4"/><path fill="#c8b100" d="M16,19.9c0.1,0,0.1,0.1,0.1,0.2c0,0,0,0,0,0c0,0,0.1,0,0.1,0c0,0,0,0,0,0.1c0,0,0,0.1,0,0.1c0,0,0,0.1,0,0.1 c0,0-0.1,0-0.1,0s-0.1,0-0.1,0c0,0,0,0-0.1-0.1c0,0-0.1-0.1-0.1-0.1c0,0,0-0.1,0-0.1c0,0,0,0,0.1,0c0,0,0,0,0,0 C16,20,16,19.9,16,19.9"/><path fill="#c8b100" d="M16.2,20.4C16.2,20.4,16.2,20.4,16.2,20.4c0-0.1,0-0.1,0-0.1c0,0,0,0,0.1-0.1c0,0,0.1,0,0.1,0s0.1,0,0.1,0 c0,0,0,0,0,0c0,0,0,0,0,0c0.1,0,0.1,0,0.2,0.1c0,0-0.1,0.1-0.2,0.1c0,0,0,0,0,0c0,0,0,0,0,0c0,0,0,0-0.1,0 C16.4,20.5,16.3,20.5,16.2,20.4C16.3,20.4,16.2,20.4,16.2,20.4"/><path fill="#ad1519" d="M16.1,20.2c0.1,0,0.1,0.1,0.1,0.1s-0.1,0.1-0.1,0.1c-0.1,0-0.1-0.1-0.1-0.1C16,20.3,16.1,20.2,16.1,20.2z"/><path fill="#c8b100" d="M17.3,20.4C17.2,20.4,17.2,20.4,17.3,20.4c0-0.1,0-0.1,0-0.1c0,0,0,0-0.1-0.1c0,0-0.1,0-0.1,0 c0,0-0.1,0-0.1,0s0,0,0,0c0,0,0,0,0,0c-0.1,0-0.2,0-0.2,0.1c0.1,0.1,0.1,0.1,0.2,0.1c0,0,0,0,0,0c0,0,0,0,0,0c0,0,0,0,0.1,0 c0,0,0.1,0,0.1,0C17.2,20.5,17.3,20.4,17.3,20.4"/><path fill="#c8b100" d="M17.3,19.9c0.1,0.1,0.1,0.1,0.1,0.2c0,0,0,0,0,0s0.1,0,0.1,0s0,0,0,0.1c0,0,0,0.1,0,0.1c0,0-0.1,0.1-0.1,0.1 c0,0-0.1,0-0.1,0c0,0-0.1,0-0.1,0c0,0,0,0-0.1-0.1c0-0.1,0-0.1,0-0.1c0,0,0-0.1,0-0.1s0,0,0.1,0c0,0,0,0,0,0 C17.2,20,17.3,19.9,17.3,19.9"/><path fill="#c8b100" d="M17.4,20.5C17.4,20.4,17.5,20.4,17.4,20.5c0-0.1,0-0.1,0-0.1c0,0,0,0,0.1,0c0,0,0.1,0,0.1,0c0,0,0.1,0,0.1,0 s0,0,0,0c0,0,0,0,0,0c0.1,0,0.2,0.1,0.2,0.1c-0.1,0-0.1,0.1-0.2,0.1c0,0,0,0,0,0c0,0,0,0,0,0c0,0,0,0-0.1,0c0,0-0.1,0-0.1-0.1 C17.5,20.5,17.4,20.5,17.4,20.5"/><path fill="#ad1519" d="M17.3,20.3c0.1,0,0.1,0.1,0.1,0.1s-0.1,0.1-0.1,0.1s-0.1-0.1-0.1-0.1S17.3,20.3,17.3,20.3z"/><path fill="#c8b100" d="M18.5,20.7C18.5,20.7,18.5,20.6,18.5,20.7c0-0.1,0-0.1,0-0.1c0,0,0,0-0.1-0.1c0,0-0.1-0.1-0.1-0.1 c0,0-0.1,0-0.1,0s0,0,0,0c0,0,0,0,0,0c-0.1,0-0.1,0-0.2,0c0,0.1,0.1,0.1,0.2,0.1c0,0,0,0,0,0c0,0,0,0,0,0c0,0,0,0,0.1,0 S18.3,20.7,18.5,20.7C18.4,20.7,18.5,20.7,18.5,20.7"/><path fill="#c8b100" d="M18.6,20.2c-0.1,0-0.1,0.1-0.1,0.1c0,0,0,0,0,0c0,0-0.1,0-0.1,0s0,0,0,0.1c0,0,0,0.1,0,0.1c0,0,0,0.1,0,0.1 c0,0,0.1,0,0.1,0c0,0,0.1,0,0.1,0.1c0,0,0,0,0.1-0.1c0,0,0-0.1,0.1-0.1s0-0.1,0-0.1s0,0-0.1,0c0,0,0,0,0,0 C18.7,20.3,18.7,20.3,18.6,20.2"/><path fill="#c8b100" d="M18.6,20.7C18.6,20.7,18.7,20.7,18.6,20.7c0-0.1,0-0.1,0-0.1c0,0,0,0,0.1,0c0,0,0.1,0,0.1,0c0,0,0.1,0,0.1,0 c0,0,0,0,0,0c0,0,0,0,0,0c0.1,0,0.1,0.1,0.2,0.1c-0.1,0-0.1,0-0.2,0c0,0,0,0,0,0c0,0,0,0,0,0s0,0-0.1,0 C18.8,20.8,18.7,20.8,18.6,20.7C18.7,20.8,18.6,20.7,18.6,20.7"/><path fill="#ad1519" d="M18.6,20.5c0.1,0,0.1,0.1,0.1,0.1c0,0.1-0.1,0.1-0.1,0.1s-0.1-0.1-0.1-0.1C18.4,20.6,18.5,20.5,18.6,20.5z"/><path fill="#c8b100" d="M19.6,21.1C19.6,21.1,19.6,21,19.6,21.1c0.1-0.1,0.1-0.1,0.2,0c0,0,0,0,0,0c0,0,0.1-0.1,0.1-0.1 c0.1,0,0.2,0,0.2,0c0-0.1-0.1-0.2-0.2-0.2c-0.1,0-0.1,0-0.1,0c0,0,0,0,0-0.1c0,0-0.1,0-0.1,0.1S19.7,21,19.6,21.1 c0.1-0.1,0.1-0.1,0-0.2c0,0-0.1-0.1-0.1-0.1s-0.1-0.1-0.1-0.1s0,0,0,0c0,0,0,0,0,0c-0.1,0-0.1,0-0.2,0c0,0.1,0.1,0.1,0.1,0.1 c0,0,0,0,0,0c0,0,0,0,0,0c0,0,0,0,0.1,0C19.4,21,19.4,21.1,19.6,21.1C19.5,21.1,19.5,21.1,19.6,21.1"/><path fill="#ad1519" d="M19.7,21c0,0-0.1,0-0.1,0s-0.1,0.1,0,0.1s0.1,0,0.1,0C19.8,21.1,19.8,21.1,19.7,21"/><path fill="#ad1519" d="M17.3,21.7c-0.6-0.1-1.1-0.2-1.5-0.3c0.4-0.1,0.9-0.1,1.5,0c0.6,0.1,1.1,0.2,1.5,0.4 C18.5,21.8,17.9,21.8,17.3,21.7L17.3,21.7z"/><path fill="#ccc" d="M17.4,27.7c-0.7-0.1-1.4-0.3-2-0.6c-0.4-0.2-0.7-0.7-0.7-1.1c0-0.6,0-1.1,0-1.7c1.8,0.1,3.6,0.4,5.4,0.7 c0,0.6,0,1.1,0,1.7c0,0.5-0.3,0.8-0.7,1C18.7,27.7,18.1,27.8,17.4,27.7L17.4,27.7z"/><path fill="#ffd691" d="M17.5,27c0.1,0,0.2,0.1,0.2,0.2c0,0.1-0.1,0.2-0.3,0.2c-0.2,0-0.3-0.1-0.3-0.2c0-0.1,0.1-0.2,0.2-0.2 c0,0,0,0,0,0c0,0,0,0,0,0s0,0,0.1,0c0,0,0,0,0,0s0,0,0,0c0,0,0,0,0,0C17.4,26.9,17.4,26.9,17.5,27C17.4,26.9,17.4,26.9,17.5,27 C17.4,26.9,17.4,26.9,17.5,27C17.5,26.9,17.5,26.9,17.5,27C17.5,26.9,17.5,26.9,17.5,27C17.5,27,17.5,27,17.5,27"/><path fill="#058e6e" d="M17.4,27.5c0,0-0.2-0.2-0.3-0.2c-0.1,0-0.3,0-0.3,0c0,0,0.1,0.1,0.1,0.1c0,0,0.1,0.1,0.2,0.1 C17.2,27.5,17.4,27.5,17.4,27.5"/><path fill="#058e6e" d="M17.4,27.5c0,0,0.1-0.1,0.3-0.1c0.2,0,0.3,0,0.3,0.1c0,0-0.1,0-0.1,0c0,0-0.1,0.1-0.2,0.1 C17.6,27.5,17.5,27.5,17.4,27.5C17.4,27.5,17.4,27.5,17.4,27.5"/><path fill="#ad1519" d="M17.4,27.4c-0.1-0.1-0.1-0.1-0.1-0.2c0-0.1,0-0.1,0.1-0.2c0.1,0.1,0.1,0.1,0.1,0.2 C17.5,27.2,17.4,27.3,17.4,27.4"/><path fill="#058e6e" d="M17.3,27.6c0,0,0-0.1,0-0.1c0-0.1,0-0.1,0-0.1c0,0,0,0,0,0c0,0,0,0,0,0c0,0,0,0.1,0,0.1 C17.4,27.5,17.4,27.6,17.3,27.6C17.4,27.6,17.4,27.6,17.3,27.6C17.3,27.6,17.3,27.6,17.3,27.6"/><path fill="#ad1519" d="M17.4,26.2c0,0.7-0.6,1.1-1.3,1c-0.7-0.1-1.3-0.7-1.3-1.3c0-0.6,0-1.1,0-1.7c0.9,0.1,1.8,0.2,2.7,0.3 C17.4,25.1,17.4,25.6,17.4,26.2"/><g><path fill="#c8b100" d="M14.7,25.9c0,0.4,0.2,0.6,0.3,0.8c0-0.8,0-1.7,0-2.5c-0.1,0-0.2,0-0.3,0C14.7,24.8,14.7,25.3,14.7,25.9 L14.7,25.9z"/><path fill="#c8b100" d="M15.3,27c0.1,0,0.2,0.1,0.3,0.2c0-1,0-1.9,0-2.9c-0.1,0-0.2,0-0.3,0C15.3,25.2,15.3,26.1,15.3,27z"/><path fill="#c8b100" d="M15.9,27.2c0.1,0,0.2,0,0.3,0c0-1,0-1.9,0-2.9c-0.1,0-0.2,0-0.3,0C15.9,25.3,15.9,26.3,15.9,27.2z"/><path fill="#c8b100" d="M16.4,27.2c0.1,0,0.3-0.1,0.3-0.1c0-0.9,0-1.8,0-2.7c-0.1,0-0.2,0-0.3,0C16.4,25.3,16.4,26.3,16.4,27.2 L16.4,27.2z"/><path fill="#c8b100" d="M17.1,26.9c0.1-0.1,0.3-0.3,0.3-0.6c0-0.6,0-1.2,0-1.8c-0.1,0-0.2,0-0.3,0C17.1,25.3,17.1,26.1,17.1,26.9z"/></g><path fill="#ad1519" d="M20,24.9c0,0.6,0,1.1,0,1.7c0,0.7-0.6,1.1-1.3,1c-0.7-0.1-1.3-0.7-1.3-1.4c0-0.6,0-1.1,0-1.7 C18.2,24.6,19.1,24.8,20,24.9"/><path fill="#c8b100" d="M18.5,25.9C18.5,25.9,18.6,25.9,18.5,25.9c-0.1-0.1-0.1-0.2-0.2-0.3c0,0-0.1,0-0.1,0 c-0.1-0.1-0.1-0.1-0.2-0.2c0,0,0,0,0.1-0.1c-0.1-0.1-0.2-0.2-0.3-0.3c0,0,0,0,0,0c0,0.1,0,0.1,0,0.2c0,0,0.1,0,0.1,0 c0,0.1,0,0.1,0,0.2c0,0-0.1,0-0.1,0c0,0.1,0,0.1,0,0.2c0,0,0.1,0.1,0.1,0.1c0.1,0,0.1,0,0.2,0c0,0,0-0.1,0-0.1c0.1,0,0.2,0,0.3,0 c0,0,0,0.1,0,0.1C18.4,25.9,18.5,25.9,18.5,25.9z M18.2,25C18.2,25,18.2,25,18.2,25c0,0.1,0.1,0.1,0.1,0.1c0,0,0-0.1,0-0.1 C18.3,25,18.2,25,18.2,25z M17.8,25.9C17.8,25.9,17.8,25.9,17.8,25.9c0.1-0.1,0-0.1,0-0.1C17.7,25.8,17.7,25.8,17.8,25.9 C17.7,25.9,17.7,25.9,17.8,25.9z M18.6,25.6C18.6,25.5,18.6,25.5,18.6,25.6c-0.1-0.1-0.1-0.2-0.1-0.3c0,0,0.1,0,0.1,0 c0,0,0-0.1,0-0.1c0,0-0.1-0.1-0.1-0.1c0,0-0.1,0-0.1,0c0,0,0,0.1,0,0.1c-0.1,0-0.2,0-0.3,0c0,0,0-0.1,0-0.1c-0.1,0-0.1,0-0.2,0 c0,0,0,0,0,0c0.1,0.1,0.2,0.2,0.3,0.3c0,0,0.1,0,0.1,0c0.1,0.1,0.1,0.1,0.2,0.2c0,0,0,0-0.1,0.1c0.1,0.1,0.1,0.2,0.2,0.3 c0,0,0,0,0,0C18.6,25.8,18.6,25.7,18.6,25.6z M18.2,25.4C18.2,25.5,18.2,25.5,18.2,25.4c0,0.1,0,0.1,0,0.2c0,0,0,0,0.1,0 C18.3,25.5,18.3,25.5,18.2,25.4z M18.7,27.3c-0.1,0-0.1-0.1-0.1-0.1c-0.1,0-0.2-0.1-0.3-0.1c0,0,0,0,0-0.1c0.1,0,0.1,0.1,0.2,0.1 c0,0,0-0.1,0.1-0.1c0-0.1,0-0.2,0-0.3c0,0-0.1,0-0.1,0c0-0.1,0-0.1,0-0.2c0,0,0.1,0,0.1,0c0-0.1,0-0.3,0-0.4c0,0,0,0,0,0 c-0.1,0.1-0.1,0.1-0.2,0.2c0,0,0,0.1,0.1,0.1c-0.1,0-0.1,0.1-0.2,0.1c0,0-0.1,0-0.1,0c-0.1,0.1-0.1,0.1-0.2,0.2c0,0,0,0.1,0,0.1 c0,0.1,0.1,0.1,0.2,0.2c0,0,0,0,0,0.1C18.1,27,18,26.9,18,26.8c0,0-0.1,0-0.1,0c-0.1-0.1-0.1-0.1,0-0.2c0,0,0,0,0,0 c0-0.1-0.1-0.2-0.1-0.3c0,0,0.1,0,0.1,0c0,0.1,0,0.1,0.1,0.2c0,0,0.1,0,0.1,0c0.1-0.1,0.1-0.1,0.2-0.2c0,0,0-0.1-0.1-0.1 c0.1,0,0.1-0.1,0.2-0.1c0,0,0.1,0,0.1,0c0.1-0.1,0.1-0.1,0.2-0.2c0,0,0,0,0,0c0,0-0.1,0-0.1,0c0,0,0,0.1,0,0.1c-0.1,0-0.2,0-0.3,0 c0,0,0-0.1,0-0.1c-0.1,0-0.1,0-0.2,0c0,0,0,0.1-0.1,0.1c0,0.1,0,0.1,0,0.2c0,0-0.1,0-0.1,0c0-0.1,0-0.1,0-0.2 c-0.1,0-0.1-0.1-0.1-0.1c0-0.1,0-0.1,0.1-0.1c0-0.1,0-0.1,0-0.2c0,0-0.1,0-0.1,0c0-0.1,0-0.1,0-0.2c0,0,0.1,0,0.1,0 c0-0.1,0-0.1,0-0.2c-0.1,0-0.1-0.1-0.1-0.1c0-0.1,0.1-0.1,0.1-0.1c0.1,0,0.1,0.1,0.1,0.1c0.1,0,0.1,0,0.2,0c0,0,0-0.1,0-0.1 c0.1,0,0.2,0,0.3,0c0,0,0,0.1,0,0.1c0,0,0.1,0,0.1,0c0,0,0.1-0.1,0.1-0.1c0,0.1,0,0.3,0,0.4c0,0,0,0,0,0c0,0,0,0.1,0,0.1 c0,0,0,0,0,0c0,0.4,0,0.7,0,1.1c0,0,0,0,0,0c0,0,0,0.1,0,0.1c0,0,0,0,0,0C18.7,26.9,18.7,27.1,18.7,27.3z M18.4,26.4 C18.3,26.3,18.3,26.3,18.4,26.4c-0.1,0-0.1,0-0.2,0C18.2,26.4,18.2,26.4,18.4,26.4C18.3,26.4,18.3,26.4,18.4,26.4z M17.8,25.4 C17.8,25.3,17.8,25.3,17.8,25.4c-0.1,0-0.1,0.1-0.1,0.1c0,0,0.1,0,0.1,0C17.8,25.4,17.8,25.4,17.8,25.4z M18.3,26 C18.3,26,18.3,25.9,18.3,26c-0.1-0.1-0.1-0.1-0.2-0.1c0,0,0,0.1,0,0.1C18.2,26,18.3,26,18.3,26z M17.8,26.4 C17.7,26.4,17.7,26.4,17.8,26.4c-0.1-0.1-0.1-0.2-0.1-0.3c0,0,0.1,0,0.1,0c0,0,0,0.1,0,0.1C17.7,26.3,17.7,26.4,17.8,26.4 L17.8,26.4z M17.8,26.1C17.9,26.1,17.9,26.2,17.8,26.1c0.1,0,0.1,0.2,0.1,0.1c0,0,0,0.1,0,0.1c0,0-0.1,0-0.1,0c0,0,0-0.1,0-0.1 C17.8,26.2,17.8,26.2,17.8,26.1z M18.4,27.1C18.4,27,18.4,27,18.4,27.1c-0.1-0.1-0.1-0.2-0.2-0.2c0,0,0,0-0.1,0 C18.2,27,18.3,27,18.4,27.1L18.4,27.1z M18.4,27.1C18.3,27.1,18.3,27.2,18.4,27.1c-0.1,0-0.2,0-0.3-0.1c0,0,0-0.1,0-0.1 C18.2,27,18.3,27.1,18.4,27.1L18.4,27.1z"/><path fill="#058e6e" d="M18.5,26c0-0.1,0.1-0.1,0.1-0.1c0.1,0,0.1,0.1,0.1,0.2c0,0.1-0.1,0.1-0.1,0.1C18.6,26.1,18.5,26.1,18.5,26"/><g><path fill="#ad1519" d="M14.7,24.3c0.9,0.1,1.8,0.2,2.7,0.3c0-0.9,0-1.9,0-2.8c-0.9-0.1-1.8-0.2-2.7-0.3 C14.7,22.4,14.7,23.3,14.7,24.3z"/><path fill="#c8b100" d="M16.6,23.7c0-0.2,0-0.5,0-0.7c0,0,0.1,0,0.1,0c0-0.1,0-0.2,0-0.4c-0.1,0-0.1,0-0.2,0c0,0,0-0.1,0-0.1 c0,0,0.1,0,0.1,0c0-0.1,0-0.1,0-0.2c0,0-0.1,0-0.1,0c0,0,0,0,0,0c0,0,0,0,0,0c0,0,0,0,0,0c0,0-0.1,0-0.1,0c0,0,0,0,0,0 c0,0,0,0-0.1,0c0,0,0,0,0,0c0,0-0.1,0-0.1,0c0,0.1,0,0.1,0,0.2c0,0,0.1,0,0.1,0c0,0,0,0.1,0,0.1c-0.1,0-0.1,0-0.2,0 c0-0.1,0-0.3,0-0.4c0,0,0.1,0,0.1,0c0-0.1,0-0.1,0-0.2c0,0-0.1,0-0.1,0c0,0,0,0,0,0c0,0,0,0,0,0c0,0,0,0,0,0c0,0-0.1,0-0.1,0 c0,0,0,0,0,0c0,0,0,0,0,0c0,0,0,0,0,0c0,0-0.1,0-0.1,0c0,0.1,0,0.1,0,0.2c0,0,0.1,0,0.1,0c0,0.1,0,0.3,0,0.4c-0.1,0-0.1,0-0.2,0 c0,0,0-0.1,0-0.1c0,0,0.1,0,0.1,0c0-0.1,0-0.1,0-0.2c0,0-0.1,0-0.1,0c0,0,0,0,0,0c0,0,0,0,0,0c0,0,0,0,0,0c0,0-0.1,0-0.1,0 c0,0,0,0,0,0c0,0,0,0,0,0c0,0,0,0,0,0c0,0-0.1,0-0.1,0c0,0.1,0,0.1,0,0.2c0,0,0.1,0,0.1,0c0,0,0,0.1,0,0.1c-0.1,0-0.1,0-0.2,0 c0,0.1,0,0.2,0,0.4c0,0,0.1,0,0.1,0v0c0,0.2,0,0.5,0,0.7c-0.1,0-0.1,0-0.2,0c0,0.1,0,0.3,0,0.4c0.5,0,1,0.1,1.5,0.2 c0-0.1,0-0.3,0-0.4C16.7,23.7,16.6,23.7,16.6,23.7z"/><path fill="#0039f0" d="M16.2,24c0-0.1,0-0.1,0-0.2c0,0,0-0.1-0.2-0.2c-0.1,0-0.2,0.1-0.2,0.1c0,0.1,0,0.1,0,0.2 C16,24,16.1,24,16.2,24L16.2,24z"/><path fill="#0039f0" d="M15.8,23.3c0-0.1,0-0.1,0-0.2c0-0.1,0-0.1-0.1-0.1c-0.1,0-0.1,0-0.1,0.1c0,0.1,0,0.1,0,0.2 C15.7,23.3,15.7,23.3,15.8,23.3z"/><path fill="#0039f0" d="M16.2,23.4c0-0.1,0-0.1,0-0.2c0-0.1,0-0.1,0.1-0.1s0.1,0.1,0.1,0.1c0,0.1,0,0.1,0,0.2 C16.4,23.4,16.3,23.4,16.2,23.4z"/></g><path fill="#ccc" d="M17.3,24.5c0.9,0.1,1.8,0.2,2.7,0.4c0-0.9,0-1.9,0-2.8c-0.9-0.1-1.8-0.3-2.7-0.4 C17.3,22.7,17.3,23.6,17.3,24.5z"/><path fill="#db4446" d="M18.7,22.6C18.7,22.6,18.7,22.6,18.7,22.6C18.7,22.6,18.7,22.6,18.7,22.6c0,0-0.1-0.1-0.1-0.1 c0,0-0.1,0-0.1-0.1c0,0-0.1-0.1-0.1-0.1c-0.1,0-0.1,0-0.1,0c0,0,0.1,0,0.1,0.1c0,0.1,0.1,0.1,0.1,0.1 C18.5,22.6,18.6,22.6,18.7,22.6C18.6,22.6,18.7,22.6,18.7,22.6L18.7,22.6z"/><path fill="#ed72aa" d="M19.1,22.6C19.1,22.6,19.1,22.6,19.1,22.6c0,0.1,0,0.1,0,0.2c0,0,0,0,0,0s0,0,0,0c0,0,0,0,0,0s0,0,0,0 s0,0,0,0.1c0,0,0,0,0,0.1c0,0,0,0.1,0.1,0.1s0,0.1,0,0.1s0,0,0-0.1c0,0-0.1,0-0.1,0s0,0,0,0.1c0,0,0,0.1,0,0.1s0,0,0-0.1 C19,23,19,23,19,23s0,0.1,0,0.1s0,0.1,0,0.1s0,0,0-0.1c0,0,0,0-0.1,0c0,0,0,0,0,0.1c0,0,0,0.1,0.1,0.3c0,0.1,0.1,0.2,0.3,0.2 c0.2,0,0.1-0.2,0.1-0.3c0-0.1-0.1-0.2,0-0.3c0,0,0-0.1,0-0.2c0,0,0-0.1,0-0.2c0-0.1,0-0.1,0.1-0.1c0,0,0,0,0-0.1c0,0,0-0.1,0-0.1 c0,0,0,0.1,0,0.1c0,0,0,0.1,0,0.1s0-0.1,0.1-0.1s0.1,0,0.1-0.1c0,0,0,0,0,0s0,0.1,0,0.1c0,0-0.1,0.1-0.1,0.1c0,0,0,0,0.1,0 c0,0,0,0,0,0s0,0-0.1,0.1c0,0.1,0,0.1-0.1,0.1c0,0-0.1,0-0.1,0.1c-0.1,0,0,0.2,0,0.2c0,0,0.1,0.3,0.1,0.3s0,0.2-0.1,0.2 c-0.1,0-0.2,0-0.2,0s-0.1,0-0.1,0.1c0,0.1,0,0.1,0.1,0.1s0.1,0,0.1,0c0,0,0,0,0,0c0,0,0,0,0,0s0,0.1-0.1,0.1c0,0,0,0.1,0,0.1 c0,0,0,0,0,0.1c0,0,0,0.1,0,0.1c0,0,0,0-0.1,0c0,0,0,0-0.1,0c0,0,0,0,0,0c0,0,0,0,0,0c0,0,0,0,0,0s0,0,0,0c0,0,0,0,0,0c0,0,0,0,0,0 c0,0,0,0,0,0c0,0,0,0,0,0c0,0,0,0,0,0c0,0,0,0,0,0c0,0,0,0,0,0c0,0,0,0,0,0c0,0,0,0,0.1,0c0,0,0,0,0.1,0c0,0,0-0.1,0-0.1 c0,0,0,0,0,0c0,0,0,0,0,0s0,0.1,0,0.1c0,0,0,0,0,0s0,0,0,0c0,0,0-0.1,0-0.1c0,0,0,0,0,0.1s0,0,0,0c0,0,0,0-0.1-0.1c0,0,0,0-0.1-0.1 c0,0,0-0.1,0-0.1c0,0,0-0.1,0-0.1c0,0,0-0.1,0-0.1c0,0,0,0-0.1,0c0,0-0.1,0-0.1,0c0,0,0,0.1,0,0.1c0,0.1,0,0.1,0,0.1c0,0,0,0,0,0 s0,0,0,0c0,0,0,0-0.1,0c0,0-0.1,0-0.1,0c0,0,0,0-0.1,0c0,0,0,0,0,0c0,0,0,0,0,0c0,0,0,0,0,0c0,0,0,0,0,0s0,0,0,0c0,0,0,0,0,0 c0,0,0,0,0,0c0,0,0,0,0,0c0,0,0,0,0-0.1c0,0,0-0.1,0-0.1c0,0,0.1,0,0.1,0c0,0,0,0,0,0s0,0,0,0c0,0,0,0,0,0c0,0,0,0,0,0 c0,0,0,0,0,0.1c0,0,0.1,0.1,0.1,0.1c0.1,0,0.1,0,0.1,0s0,0,0-0.1c0,0,0,0,0,0s0,0,0,0c0,0,0,0,0,0s0,0,0-0.1c0,0,0,0,0,0 c0,0,0,0,0,0s0,0,0,0c0,0,0,0.1,0,0.1s0,0,0-0.1c0,0,0-0.1,0-0.1c0,0,0-0.1,0.1-0.1c0.1,0,0.1,0,0.1,0c0,0,0.1,0,0.1,0 c0,0-0.2-0.1-0.2-0.1c0,0-0.1-0.1-0.1-0.1c0,0,0-0.1,0-0.1s0,0-0.1,0c0,0-0.1,0-0.1,0s0,0,0,0c0,0,0,0,0-0.1c0,0,0,0,0,0 s0,0.1-0.1,0.1c0,0-0.1,0-0.1,0s0,0,0,0c0,0,0,0,0,0c0,0,0,0-0.1,0c0,0-0.1,0-0.1,0c0,0,0,0.1,0,0.1c0,0,0,0,0,0s0,0,0,0 c0,0,0,0,0,0s0,0,0,0c0,0,0,0,0,0c0,0,0,0,0,0c0,0,0,0,0,0c0,0,0,0,0-0.1c0,0,0,0,0,0c0,0,0.1,0,0.1,0c0,0,0,0,0,0c0,0,0,0,0,0 c0,0,0,0,0,0c0,0,0,0,0,0c0,0,0,0,0.1,0.1c0,0,0.1,0,0.1,0c0,0,0.1,0,0.1,0c0,0,0.1,0,0.1,0c0,0,0,0-0.1,0s0-0.1-0.1-0.1 c0,0-0.1,0-0.1,0c0,0-0.1,0-0.1,0c0,0,0,0,0,0c0,0,0,0,0,0c0,0,0,0,0,0c0,0-0.1,0-0.1,0c0,0-0.1,0-0.1,0c0,0,0,0,0,0s0,0,0.1,0 c0,0,0.1,0,0.1,0c0,0-0.1,0-0.1,0c0,0,0,0,0-0.1s0,0,0,0c0,0,0,0-0.1,0s0,0,0,0c0,0,0,0,0,0c0,0,0,0,0,0c0,0,0.1,0,0.1,0 c0,0,0,0,0,0c0,0-0.1,0,0,0c0,0,0,0,0,0c0,0,0,0,0,0c0,0,0,0.1,0.1,0.1c0,0,0,0,0-0.1c0,0,0,0,0,0s0,0,0.1,0c0,0,0.1,0,0.1,0 c0,0,0,0,0,0c0,0,0,0,0,0.1c0,0,0,0.1,0.1,0.1s0.1,0,0.1,0.1c0,0,0.1,0.1,0.1,0.1c0,0,0,0,0,0s0,0,0.1,0c0,0,0.1,0,0.1,0 c0,0,0.1,0,0.1,0c0,0-0.1-0.1-0.1-0.1c0,0,0,0,0.1,0c0,0,0.1,0,0.1,0s0-0.1,0-0.1c-0.1,0-0.1,0-0.1-0.1c0,0,0-0.1,0-0.1 c0,0,0,0,0.1,0c0,0,0.1,0,0.1,0c0,0,0,0,0,0s0.1,0,0.1,0s0.1,0,0.1,0.1C19.1,22.5,19.1,22.6,19.1,22.6"/><path fill="#db4446" d="M18,22.3C18,22.3,18,22.4,18,22.3C18,22.4,18.1,22.4,18,22.3C18.1,22.4,18.1,22.4,18,22.3 C18.1,22.3,18,22.3,18,22.3C18,22.3,18,22.3,18,22.3C18,22.3,18,22.3,18,22.3L18,22.3z"/><path fill="#db4446" d="M17.8,22.4C17.8,22.4,17.8,22.3,17.8,22.4c-0.1,0-0.2,0-0.2,0S17.7,22.4,17.8,22.4 C17.8,22.4,17.8,22.4,17.8,22.4C17.8,22.4,17.8,22.4,17.8,22.4C17.8,22.4,17.8,22.4,17.8,22.4L17.8,22.4z"/><path fill="#db4446" d="M17.8,22.5C17.8,22.5,17.7,22.5,17.8,22.5C17.7,22.6,17.7,22.6,17.8,22.5C17.7,22.6,17.7,22.6,17.8,22.5 C17.8,22.6,17.8,22.6,17.8,22.5C17.8,22.6,17.8,22.6,17.8,22.5C17.8,22.6,17.8,22.5,17.8,22.5L17.8,22.5z"/><path fill="#db4446" d="M17.9,23.1C17.9,23.1,17.9,23,17.9,23.1c-0.1,0-0.1,0-0.1,0S17.8,23.1,17.9,23.1 C17.9,23.1,17.9,23.1,17.9,23.1C17.9,23.1,17.9,23.1,17.9,23.1C17.9,23.1,17.9,23.1,17.9,23.1L17.9,23.1z"/><path fill="#db4446" d="M17.9,23.2C17.9,23.2,17.8,23.2,17.9,23.2C17.8,23.2,17.8,23.3,17.9,23.2C17.8,23.3,17.8,23.3,17.9,23.2 C17.9,23.3,17.9,23.3,17.9,23.2C17.9,23.3,17.9,23.3,17.9,23.2C17.9,23.2,17.9,23.2,17.9,23.2L17.9,23.2z"/><path fill="#db4446" d="M18,23.3C18,23.3,18,23.4,18,23.3c0,0.1,0.1,0.1,0.1,0.1S18,23.4,18,23.3C18,23.4,18,23.4,18,23.3 C18,23.4,18,23.4,18,23.3C18,23.3,18,23.3,18,23.3L18,23.3z"/><path fill="#db4446" d="M18.3,23.8C18.3,23.8,18.3,23.7,18.3,23.8c-0.1,0-0.1,0-0.1,0C18.2,23.7,18.3,23.7,18.3,23.8 C18.3,23.8,18.3,23.8,18.3,23.8C18.3,23.8,18.3,23.8,18.3,23.8C18.3,23.8,18.3,23.8,18.3,23.8L18.3,23.8z"/><path fill="#db4446" d="M18.2,23.9C18.2,23.9,18.2,23.9,18.2,23.9C18.1,23.9,18.1,24,18.2,23.9C18.1,24,18.2,23.9,18.2,23.9 C18.2,23.9,18.3,24,18.2,23.9C18.3,24,18.2,23.9,18.2,23.9C18.2,23.9,18.2,23.9,18.2,23.9L18.2,23.9z"/><path fill="#db4446" d="M18.3,24C18.3,24,18.3,24.1,18.3,24c0,0.1,0,0.1,0,0.1S18.4,24.1,18.3,24C18.4,24.1,18.4,24.1,18.3,24 C18.4,24.1,18.4,24.1,18.3,24L18.3,24z"/><path fill="#db4446" d="M19,24.2C19,24.2,19,24.2,19,24.2c-0.1,0-0.1,0.1-0.1,0.1S18.9,24.2,19,24.2C19,24.2,19,24.3,19,24.2 C19,24.3,19,24.2,19,24.2C19,24.2,19,24.2,19,24.2L19,24.2z"/><path fill="#db4446" d="M19,24.4C19,24.4,19,24.4,19,24.4c0,0.1,0,0.1,0,0.1C19,24.5,19,24.4,19,24.4C19.1,24.4,19.1,24.4,19,24.4 C19.1,24.4,19.1,24.4,19,24.4C19.1,24.4,19,24.4,19,24.4z"/><path fill="#db4446" d="M19.2,24.4C19.2,24.4,19.2,24.5,19.2,24.4c0,0.1,0.1,0.1,0.1,0.1S19.2,24.5,19.2,24.4 C19.3,24.4,19.3,24.4,19.2,24.4C19.3,24.4,19.2,24.4,19.2,24.4C19.2,24.4,19.2,24.4,19.2,24.4L19.2,24.4z"/><path fill="#c8b100" d="M19.1,22.3C19.1,22.3,19.1,22.3,19.1,22.3C19.1,22.3,19.1,22.3,19.1,22.3C19,22.4,19,22.4,19.1,22.3 C19,22.3,19,22.3,19.1,22.3c-0.1,0-0.1,0-0.1,0c0,0,0,0,0,0c0,0,0,0,0,0c0,0,0,0,0,0c0,0,0,0,0,0c0,0,0,0,0,0c0,0,0,0,0,0 c0,0,0,0,0,0c0,0,0,0,0,0c0,0,0-0.1,0-0.1c0,0,0,0,0,0c0,0,0,0,0,0.1c0,0,0,0.1,0,0.1C18.9,22.3,18.9,22.4,19.1,22.3 c0,0.1,0,0.2,0,0.2c0,0,0,0,0.1,0c0,0,0.1,0,0.1,0c0,0,0,0,0,0c0,0-0.1,0-0.1,0c0,0,0,0,0,0c0,0,0,0,0,0c0,0,0,0,0,0c0,0,0,0,0,0 c0,0,0,0,0,0c0,0,0,0,0,0c0,0,0,0,0,0c0,0,0,0,0,0C19.1,22.4,19.1,22.4,19.1,22.3C19.1,22.4,19.1,22.4,19.1,22.3 C19.1,22.4,19.1,22.4,19.1,22.3C19.1,22.4,19.1,22.4,19.1,22.3C19.1,22.3,19.1,22.3,19.1,22.3L19.1,22.3L19.1,22.3z"/><path fill="#c8b100" d="M19,22.2C19,22.2,19,22.2,19,22.2C19,22.2,19,22.2,19,22.2C19,22.2,19,22.2,19,22.2C19,22.3,19,22.3,19,22.2 C19,22.2,19,22.2,19,22.2C19,22.2,19,22.2,19,22.2"/><path fill="#c8b100" d="M19,22.2C19,22.2,19,22.2,19,22.2C19,22.2,19,22.2,19,22.2C19,22.2,19,22.2,19,22.2C19,22.3,19,22.3,19,22.2 C19,22.2,19,22.2,19,22.2C19,22.2,19,22.2,19,22.2"/><path fill="#c8b100" d="M18.9,22.2C18.9,22.2,18.9,22.2,18.9,22.2C18.9,22.2,19,22.3,18.9,22.2C19,22.3,19,22.3,18.9,22.2 C19,22.3,19,22.2,18.9,22.2C19,22.2,19,22.2,18.9,22.2C18.9,22.2,18.9,22.2,18.9,22.2"/><path fill="#c8b100" d="M19,22.3C19,22.3,19,22.3,19,22.3C19,22.3,19,22.3,19,22.3C19,22.3,19,22.2,19,22.3C19,22.2,19,22.2,19,22.3 C19,22.2,19,22.3,19,22.3C19,22.3,19,22.3,19,22.3"/><path fill="#c8b100" d="M19,22.2C19,22.2,19,22.2,19,22.2C19,22.2,19,22.3,19,22.2C19,22.3,19,22.3,19,22.2C19,22.3,19,22.2,19,22.2z"/><path fill="#c8b100" d="M18.8,22.2C18.8,22.2,18.8,22.2,18.8,22.2C18.8,22.1,18.8,22.1,18.8,22.2C18.8,22.1,18.8,22.1,18.8,22.2 C18.9,22.1,18.9,22.2,18.8,22.2C18.9,22.2,18.9,22.2,18.8,22.2L18.8,22.2z"/><path fill="#c8b100" d="M18.9,22.2C18.9,22.2,18.9,22.2,18.9,22.2C18.9,22.2,18.9,22.2,18.9,22.2C18.8,22.2,18.8,22.2,18.9,22.2 C18.8,22.2,18.8,22.2,18.9,22.2C18.9,22.2,18.9,22.2,18.9,22.2C18.9,22.2,18.9,22.2,18.9,22.2"/><path fill="#c8b100" d="M18.8,22.2C18.8,22.2,18.8,22.2,18.8,22.2C18.9,22.2,18.9,22.2,18.8,22.2C18.9,22.2,18.8,22.2,18.8,22.2 C18.8,22.2,18.8,22.2,18.8,22.2z"/><path fill="#c8b100" d="M19.1,22.3C19.1,22.3,19.1,22.3,19.1,22.3C19.1,22.3,19.1,22.3,19.1,22.3C19.1,22.3,19.1,22.3,19.1,22.3 C19.1,22.3,19.1,22.3,19.1,22.3C19.1,22.3,19.1,22.3,19.1,22.3C19.1,22.3,19.1,22.3,19.1,22.3"/><path fill="#c8b100" d="M19,22.3C19,22.3,19,22.3,19,22.3C19.1,22.3,19.1,22.3,19,22.3C19.1,22.3,19.1,22.3,19,22.3 C19.1,22.3,19.1,22.3,19,22.3C19.1,22.3,19.1,22.3,19,22.3C19.1,22.3,19,22.3,19,22.3"/><path fill="#c8b100" d="M19.1,22.4C19.1,22.4,19.1,22.4,19.1,22.4C19.1,22.4,19.1,22.4,19.1,22.4C19.1,22.3,19.1,22.3,19.1,22.4 C19.1,22.3,19.1,22.3,19.1,22.4C19.1,22.3,19.1,22.3,19.1,22.4C19.1,22.4,19.1,22.4,19.1,22.4"/><path fill="#c8b100" d="M19.1,22.3C19.1,22.3,19.1,22.3,19.1,22.3C19.1,22.3,19.1,22.3,19.1,22.3C19.1,22.3,19.1,22.3,19.1,22.3 C19.1,22.3,19.1,22.3,19.1,22.3L19.1,22.3z"/><path fill="#c8b100" d="M19.2,22.4C19.2,22.4,19.2,22.4,19.2,22.4C19.2,22.4,19.2,22.4,19.2,22.4C19.2,22.4,19.2,22.4,19.2,22.4 C19.2,22.4,19.2,22.4,19.2,22.4C19.2,22.4,19.2,22.4,19.2,22.4C19.2,22.4,19.2,22.4,19.2,22.4"/><path fill="#c8b100" d="M19.2,22.5C19.2,22.5,19.2,22.5,19.2,22.5C19.2,22.5,19.2,22.5,19.2,22.5C19.2,22.4,19.2,22.4,19.2,22.5 C19.2,22.4,19.2,22.4,19.2,22.5C19.2,22.4,19.2,22.4,19.2,22.5C19.2,22.5,19.2,22.5,19.2,22.5"/><path fill="#c8b100" d="M19.1,22.4C19.1,22.4,19.1,22.4,19.1,22.4C19.1,22.4,19.2,22.4,19.1,22.4C19.2,22.4,19.2,22.4,19.1,22.4 C19.2,22.4,19.2,22.4,19.1,22.4C19.2,22.4,19.2,22.4,19.1,22.4C19.2,22.4,19.2,22.4,19.1,22.4"/><path fill="#c8b100" d="M19.2,22.4C19.2,22.4,19.2,22.4,19.2,22.4C19.2,22.4,19.2,22.4,19.2,22.4C19.2,22.4,19.2,22.4,19.2,22.4 C19.2,22.4,19.2,22.4,19.2,22.4L19.2,22.4z"/><path fill="#c8b100" d="M19.3,22.5C19.3,22.5,19.3,22.6,19.3,22.5C19.3,22.6,19.3,22.6,19.3,22.5C19.3,22.6,19.3,22.6,19.3,22.5 C19.3,22.5,19.3,22.5,19.3,22.5C19.3,22.5,19.3,22.5,19.3,22.5L19.3,22.5z"/><path fill="#c8b100" d="M19.2,22.5C19.2,22.5,19.2,22.5,19.2,22.5C19.2,22.5,19.3,22.5,19.2,22.5C19.3,22.5,19.3,22.5,19.2,22.5 C19.3,22.5,19.3,22.5,19.2,22.5C19.3,22.5,19.3,22.5,19.2,22.5C19.3,22.5,19.3,22.5,19.2,22.5"/><path fill="#c8b100" d="M19.3,22.6C19.3,22.5,19.3,22.5,19.3,22.6C19.3,22.5,19.3,22.5,19.3,22.6C19.3,22.5,19.3,22.5,19.3,22.6 C19.3,22.6,19.3,22.6,19.3,22.6z"/><path fill="#ad1519" d="M17.4,23.6c0.5,0.1,0.9,0.5,0.9,1s-0.4,0.9-0.9,0.8c-0.5-0.1-0.9-0.5-0.9-1C16.5,23.9,16.9,23.5,17.4,23.6z"/><path fill="#005bbf" d="M17.4,23.8c0.3,0,0.6,0.4,0.6,0.8c0,0.4-0.3,0.6-0.6,0.6c-0.3,0-0.6-0.4-0.6-0.7S17,23.8,17.4,23.8z"/><path fill="#c8b100" d="M17.1,24c0,0-0.1,0.1-0.1,0.1c0,0.1,0,0.1,0,0.1c0,0,0-0.1-0.1-0.1c0,0-0.1,0-0.1,0.1c0,0,0,0,0,0 c0,0,0,0,0,0.1c0,0,0,0,0.1,0c0,0,0.1,0,0.1,0.1c0,0,0,0,0,0c0,0,0,0-0.1,0c0,0,0,0,0,0.1c0,0,0,0,0.1,0c0,0,0,0.1,0,0.1 c0,0,0,0,0.1,0c0,0,0,0,0,0.1c0,0,0,0,0,0c0,0,0,0,0.1,0c0,0,0-0.1,0-0.1c0,0,0,0,0.1,0c0,0,0,0,0-0.1c0,0,0,0-0.1,0c0,0,0,0,0,0 c0,0,0,0,0.1,0c0,0,0,0,0.1,0c0,0,0,0,0,0c0,0,0,0,0,0c0,0,0-0.1-0.1-0.1c0,0-0.1,0-0.1,0c0,0,0-0.1,0-0.1 C17.1,24.1,17.1,24,17.1,24L17.1,24z"/><path fill="#c8b100" d="M17,24.5c0.1,0,0.2,0,0.2,0c0,0,0,0,0-0.1C17.1,24.4,17,24.4,17,24.5C17,24.4,17,24.5,17,24.5z"/><path fill="#c8b100" d="M17.6,24.1c0,0-0.1,0.1-0.1,0.1c0,0.1,0,0.1,0,0.1c0,0,0-0.1-0.1-0.1c0,0-0.1,0-0.1,0.1c0,0,0,0,0,0 c0,0,0,0,0,0.1c0,0,0,0,0.1,0c0,0,0.1,0,0.1,0.1c0,0,0,0,0,0c0,0,0,0-0.1,0c0,0,0,0,0,0.1c0,0,0,0,0.1,0c0,0,0,0,0,0.1 c0,0,0,0,0.1,0c0,0,0,0,0,0.1c0,0,0,0,0,0c0,0,0,0,0.1,0c0,0,0-0.1,0-0.1c0,0,0,0,0.1,0c0,0,0,0,0-0.1c0,0,0,0-0.1,0c0,0,0,0,0,0 c0,0,0,0,0.1,0c0,0,0,0,0.1,0c0,0,0,0,0,0c0,0,0,0,0,0c0,0,0-0.1-0.1-0.1c0,0-0.1,0-0.1,0c0,0,0-0.1,0-0.1 C17.7,24.2,17.6,24.1,17.6,24.1L17.6,24.1z"/><path fill="#c8b100" d="M17.5,24.5c0.1,0,0.2,0,0.2,0c0,0,0,0,0-0.1C17.7,24.5,17.6,24.5,17.5,24.5C17.5,24.5,17.5,24.5,17.5,24.5z"/><path fill="#c8b100" d="M17.4,24.5c0,0-0.1,0.1-0.1,0.1s0,0.1,0,0.1c0,0,0-0.1-0.1-0.1c0,0-0.1,0-0.1,0.1c0,0,0,0,0,0c0,0,0,0,0,0.1 c0,0,0,0,0.1,0c0,0,0.1,0,0.1,0.1c0,0,0,0,0,0c0,0,0,0-0.1,0c0,0,0,0,0,0.1c0,0,0,0,0.1,0c0,0,0,0,0,0.1c0,0,0,0,0.1,0 c0,0,0,0,0,0.1c0,0,0,0,0,0c0,0,0,0,0.1,0c0,0,0-0.1,0-0.1c0,0,0,0,0.1,0c0,0,0,0,0-0.1c0,0,0,0-0.1,0c0,0,0,0,0,0c0,0,0,0,0.1,0 c0,0,0,0,0.1,0c0,0,0,0,0,0c0,0,0,0,0,0c0,0,0-0.1-0.1-0.1c0,0-0.1,0-0.1,0c0,0,0-0.1,0-0.1C17.4,24.6,17.4,24.5,17.4,24.5 L17.4,24.5z"/><path fill="#c8b100" d="M17.2,25c0.1,0,0.2,0,0.2,0c0,0,0,0,0-0.1C17.4,24.9,17.3,24.9,17.2,25C17.2,24.9,17.2,25,17.2,25z"/><g><path fill="#ad1519" d="M21.9,26c0,0.1,0,0.2,0.1,0.2c0,0,0-0.1,0.1-0.2c0.1,0,0.1-0.1,0.1-0.1c0,0-0.1-0.1-0.2-0.2 C22,25.8,21.9,25.9,21.9,26z"/><path fill="#ad1519" d="M21.8,24.8c0-0.1,0-0.3,0-0.4c0.1,0,0.1,0,0.2,0c0.1,0.1,0.2,0.2,0.2,0.2C22.2,24.7,22,24.7,21.8,24.8"/><path fill="#ad1519" d="M20.9,24.5c0,0.1,0,0.3,0,0.4c-0.2-0.1-0.4-0.2-0.3-0.3c0,0,0,0,0,0C20.6,24.6,20.7,24.5,20.9,24.5"/><path fill="#ad1519" d="M21.3,22.1C21.3,22.1,21.3,22.1,21.3,22.1c-0.1,0-0.1,0-0.1,0s0,0-0.1,0c0,0-0.1,0-0.1,0c0,0,0,0-0.1,0 c0,0-0.1,0-0.1,0s0,0,0,0c0,0,0,0,0,0c0,0,0,0,0,0c0,0,0,0,0,0c0,0,0,0,0,0c0,0,0,0,0-0.1c0,0,0,0,0,0c0,0,0-0.1,0.1-0.1 c0,0,0.1,0,0.1,0c0,0,0.1,0,0.2,0c0.1,0,0.1,0,0.2,0.1c0,0,0.1,0,0.2,0c0.1,0,0.1,0,0.2,0.1c0,0,0.1,0,0.1,0 c0.1,0,0.1,0.1,0.1,0.1c0,0,0,0,0,0c0,0,0,0.1,0,0.1c0,0,0,0,0,0c0,0,0,0,0,0c0,0,0,0,0,0c0,0,0,0,0,0c0,0,0,0,0,0s0,0-0.1,0 c0,0-0.1-0.1-0.1-0.1s0,0-0.1,0c0,0-0.1,0-0.1,0S21.4,22.1,21.3,22.1C21.4,22.1,21.3,22.1,21.3,22.1L21.3,22.1z"/><path fill="#c8b100" d="M21.3,22.4c0.1,0,0.3,0,0.3,0c0,0,0.1,0,0.1,0c0,0,0,0,0,0c-0.1,0-0.2-0.1-0.4-0.1c-0.1,0-0.3,0-0.4,0 c0,0,0,0,0,0c0,0,0,0,0.1,0.1C21.1,22.3,21.2,22.4,21.3,22.4z"/><path fill="#c8b100" d="M21.9,22.1C21.9,22.1,21.9,22.1,21.9,22.1C21.9,22.1,21.9,22.1,21.9,22.1C21.9,22.1,21.9,22.1,21.9,22.1 C21.8,22.1,21.9,22.2,21.9,22.1C21.9,22.2,21.9,22.2,21.9,22.1C21.9,22.2,21.9,22.2,21.9,22.1C21.9,22.2,21.8,22.2,21.9,22.1 c-0.1,0-0.1,0-0.1,0c0,0,0,0,0,0c0,0,0,0,0,0C21.8,22.2,21.8,22.2,21.9,22.1c-0.1,0.1-0.1,0.1-0.1,0.1c0,0,0,0,0,0c0,0,0,0,0,0 c0,0,0,0,0,0c0,0,0,0,0,0c0,0,0,0,0,0c0,0,0,0,0,0c0,0,0,0,0,0l0,0c0,0,0,0,0,0c0,0-0.1,0-0.1-0.1c0,0,0,0,0,0c0,0,0,0,0,0 c0,0,0,0,0,0c0,0,0,0,0.1,0c0,0,0,0,0,0c0,0,0,0,0,0c0,0,0,0-0.1,0l0,0c0,0,0,0,0,0c0,0,0,0,0,0c0,0,0,0,0,0c0,0,0,0,0,0.1 c0,0,0,0,0,0c0,0,0,0-0.1,0c0,0,0,0,0,0c0,0,0,0,0,0c0,0,0,0,0.1,0c0,0,0,0,0,0c0,0,0,0,0,0c0,0,0,0,0,0c0,0,0,0-0.1,0 c0,0-0.1,0-0.1-0.1c0,0,0,0,0,0c0,0,0,0,0,0c0,0,0,0,0,0c0,0,0,0,0,0c0,0,0,0,0,0c0,0,0,0,0,0c0,0,0,0-0.1,0c0,0-0.1,0-0.1-0.1 c0,0,0,0,0,0c0,0,0,0,0,0c0,0,0,0,0,0c0,0,0,0,0.1,0c0,0,0,0,0,0c0,0,0,0,0,0c0,0,0,0-0.1,0c0,0,0,0,0-0.1c0,0,0,0,0,0 c0,0,0,0,0-0.1c0,0,0-0.1-0.1-0.1c0,0,0,0,0,0c0,0,0,0,0,0c0,0,0,0,0,0c0,0,0,0,0,0c0,0,0,0,0,0c0,0,0,0,0-0.1c0,0,0,0,0,0 c0,0,0,0,0,0c0,0,0,0,0,0c0,0,0,0,0,0c0,0,0,0,0,0c0,0,0,0,0,0c0,0,0,0,0,0c0,0,0,0,0,0c0,0,0,0,0,0c0,0,0,0,0,0.1c0,0,0,0,0,0 c0,0,0,0,0,0c0,0,0,0,0,0c0,0,0,0,0,0c0,0,0,0,0,0c0,0-0.1,0-0.1,0.1c0,0,0,0.1,0,0.1c0,0,0,0,0,0c0,0,0,0,0,0.1c0,0,0,0-0.1,0 c0,0,0,0,0,0c0,0,0,0,0,0c0,0,0,0,0.1,0c0,0,0,0,0,0h0c0,0,0,0,0,0c0,0,0,0-0.1,0c0,0,0,0-0.1,0c0,0,0,0,0,0c0,0,0,0,0,0 c0,0,0,0,0,0s0,0,0,0c0,0,0,0,0,0c0,0,0,0-0.1,0c0,0-0.1,0-0.1-0.1c0,0,0,0,0,0c0,0,0,0,0,0l0,0c0,0,0,0,0.1,0c0,0,0,0,0,0 c0,0,0,0,0,0c0,0,0,0-0.1,0l0,0c0,0,0,0,0-0.1c0,0,0,0,0,0c0,0,0,0,0,0c0,0,0,0,0,0.1l0,0c0,0,0,0-0.1,0c0,0,0,0,0,0c0,0,0,0,0,0 c0,0,0,0,0.1,0c0,0,0,0,0,0l0,0c0,0,0,0,0,0c0,0,0,0-0.1,0c0,0,0,0,0,0c0,0,0,0,0,0c0,0,0,0,0,0c0,0,0,0,0,0c0,0,0,0,0,0 c0,0,0,0,0,0v0c0,0,0,0,0,0c0,0,0,0,0,0c0,0,0,0,0,0c0,0,0,0,0,0c0,0,0,0,0,0c0,0,0,0,0,0c0,0,0,0-0.1,0c0,0,0,0,0,0c0,0,0,0,0,0 l0,0c0,0,0,0,0,0c0,0,0,0,0,0c0,0,0,0,0,0c0,0,0,0,0,0c0,0,0,0,0,0c0,0,0,0,0,0c0,0,0,0,0,0c0,0,0,0,0,0c0,0,0,0,0,0c0,0,0,0,0,0 c0,0,0,0,0,0c0,0,0,0,0.1,0.1c0,0,0,0,0,0c0,0,0,0,0,0c0,0,0,0,0,0c0,0,0,0,0,0c0,0,0,0,0,0c0,0,0,0,0,0c0,0,0,0,0,0 c0.1,0,0.1,0,0,0c0,0,0,0,0,0.1c0,0,0,0,0,0c0.1,0,0.2,0,0.4,0c0.1,0,0.3,0.1,0.4,0.1c0,0,0,0,0,0c0,0,0,0,0,0c0,0,0,0,0,0 c0,0,0,0,0,0c0,0,0,0,0,0c0,0,0,0,0,0c0,0,0,0,0,0c0,0,0,0,0.1,0C21.8,22.2,21.8,22.2,21.9,22.1C21.8,22.2,21.8,22.2,21.9,22.1 C21.9,22.2,21.9,22.2,21.9,22.1C21.9,22.2,21.9,22.2,21.9,22.1C21.9,22.2,21.9,22.2,21.9,22.1C21.9,22.1,21.9,22.1,21.9,22.1 C21.9,22.1,21.9,22.1,21.9,22.1z M20.8,22L20.8,22C20.8,22,20.8,22,20.8,22C20.8,22,20.8,22,20.8,22z"/><path fill="#ad1519" d="M21.3,22.4c-0.1,0-0.2-0.1-0.3-0.1C21.1,22.3,21.2,22.3,21.3,22.4c0.1,0,0.2,0,0.3,0 C21.6,22.4,21.5,22.4,21.3,22.4z"/><path fill="#005bbf" d="M22.2,27.7c-0.1,0-0.2,0-0.2-0.1c-0.1,0-0.1-0.1-0.2-0.1c-0.1,0-0.2,0-0.2,0c-0.1,0-0.1,0-0.2,0 c-0.1,0-0.2,0-0.2-0.1c-0.1,0-0.1-0.1-0.2-0.1c-0.1,0-0.2,0-0.2,0c-0.1,0-0.1,0-0.2,0c0,0,0,0.1,0,0.1c0.1,0,0.2,0,0.2,0 c0.1,0,0.1,0,0.2,0c0.1,0,0.1,0,0.2,0.1c0.1,0,0.1,0.1,0.2,0.1c0.1,0,0.2,0,0.2,0c0.1,0,0.1,0,0.2,0c0.1,0,0.2,0,0.2,0.1 c0.1,0,0.1,0.1,0.2,0.1C22.2,27.8,22.2,27.8,22.2,27.7L22.2,27.7z"/><path fill="#ccc" d="M22.2,27.9c-0.1,0-0.2,0-0.2-0.1c-0.1,0-0.1-0.1-0.2-0.1c-0.1,0-0.2,0-0.2,0c-0.1,0-0.1,0-0.2,0 c-0.1,0-0.2,0-0.2-0.1c-0.1,0-0.1-0.1-0.2-0.1c-0.1,0-0.2,0-0.2,0c-0.1,0-0.1,0-0.2,0c0,0,0,0.1,0,0.1c0.1,0,0.2,0,0.2,0 c0.1,0,0.1,0,0.2,0c0.1,0,0.1,0,0.2,0.1c0.1,0,0.1,0.1,0.2,0.1c0.1,0,0.2,0,0.2,0c0.1,0,0.1,0,0.2,0c0.1,0,0.2,0,0.2,0.1 c0.1,0,0.1,0.1,0.2,0.1C22.2,27.9,22.2,27.9,22.2,27.9"/><path fill="#005bbf" d="M22.2,28c-0.1,0-0.2,0-0.2-0.1c-0.1,0-0.1-0.1-0.2-0.1c-0.1,0-0.2,0-0.2,0c-0.1,0-0.1,0-0.2,0 c-0.1,0-0.2,0-0.2-0.1c-0.1,0-0.1-0.1-0.2-0.1c-0.1,0-0.2,0-0.2,0c-0.1,0-0.1,0-0.2,0c0,0,0,0.1,0,0.1c0.1,0,0.2,0,0.2,0 c0.1,0,0.1,0,0.2,0c0.1,0,0.1,0,0.2,0.1c0.1,0,0.1,0.1,0.2,0.1c0.1,0,0.2,0,0.2,0c0.1,0,0.1,0,0.2,0c0.1,0,0.2,0,0.2,0.1 c0.1,0,0.1,0.1,0.2,0.1C22.2,28.1,22.2,28,22.2,28"/><path fill="#ccc" d="M22.2,28.2c-0.1,0-0.2,0-0.2-0.1c-0.1,0-0.1-0.1-0.2-0.1c-0.1,0-0.2,0-0.2,0c-0.1,0-0.1,0-0.2,0 c-0.1,0-0.2,0-0.2-0.1c-0.1,0-0.1-0.1-0.2-0.1c-0.1,0-0.2,0-0.2,0c-0.1,0-0.1,0-0.2,0c0,0,0-0.1,0-0.1c0.1,0,0.2,0,0.2,0 c0.1,0,0.1,0,0.2,0c0.1,0,0.1,0,0.2,0.1c0.1,0,0.1,0.1,0.2,0.1c0.1,0,0.2,0,0.2,0c0.1,0,0.1,0,0.2,0c0.1,0,0.2,0,0.2,0.1 c0.1,0,0.1,0.1,0.2,0.1C22.2,28.1,22.2,28.2,22.2,28.2"/><path fill="#005bbf" d="M22.2,28.3c-0.1,0-0.2,0-0.2-0.1c-0.1,0-0.1-0.1-0.2-0.1c-0.1,0-0.2,0-0.2,0c-0.1,0-0.1,0-0.2,0 c-0.1,0-0.2,0-0.2-0.1c-0.1,0-0.1-0.1-0.2-0.1c-0.1,0-0.2,0-0.2,0c-0.1,0-0.1,0-0.2,0c0,0,0-0.1,0-0.1c0.1,0,0.2,0,0.2,0 c0.1,0,0.1,0,0.2,0c0.1,0,0.1,0,0.2,0.1c0.1,0,0.1,0.1,0.2,0.1c0.1,0,0.2,0,0.2,0c0.1,0,0.1,0,0.2,0c0.1,0,0.2,0,0.2,0.1 c0.1,0,0.1,0.1,0.2,0.1C22.2,28.3,22.2,28.3,22.2,28.3L22.2,28.3z"/><path fill="#c8b100" d="M21.9,27.4C21.9,27.4,21.9,27.4,21.9,27.4C21.9,27.4,21.9,27.4,21.9,27.4C21.9,27.4,21.9,27.4,21.9,27.4 c-0.1,0-0.2-0.1-0.2-0.2c0,0,0,0,0,0c0,0,0,0,0,0c0,0,0.1,0,0.1,0s0,0-0.1,0c-0.3,0-0.6-0.1-0.9-0.1c0,0-0.1,0-0.1,0s0,0,0.1,0 c0,0,0,0,0,0c0,0,0,0,0,0c0,0.1-0.1,0.1-0.1,0.1c0,0,0,0,0,0c0,0.1,0,0.2,0,0.3c0.4,0.1,0.8,0.1,1.2,0.2 C21.9,27.6,21.9,27.5,21.9,27.4C21.9,27.4,21.9,27.4,21.9,27.4z"/><path fill="#ccc" d="M20.9,26.9c0.3,0,0.6,0.1,0.9,0.1c0-1.3,0-2.7,0-4c-0.3,0-0.6-0.1-0.9-0.1C20.9,24.2,20.9,25.6,20.9,26.9z"/><path fill="#c8b100" d="M21.9,22.8c0,0-0.1,0-0.1,0C21.8,22.7,21.8,22.8,21.9,22.8c-0.1,0-0.1,0-0.1,0h0c0,0,0,0,0,0.1 c0,0,0,0,0,0.1c0,0,0,0,0,0c0,0,0,0,0,0c-0.3,0-0.6-0.1-0.9-0.1c0,0,0,0,0,0s0,0,0,0c0,0,0,0,0-0.1c0,0,0,0,0-0.1c0,0,0,0,0,0h0 c0,0,0,0,0,0c0,0,0,0,0,0c0,0-0.1,0-0.1,0v-0.3c0.4,0.1,0.8,0.1,1.2,0.2V22.8z"/><path fill="#ad1519" d="M20,24.4c0-0.2,0-0.3,0-0.5c0.2-0.1,0.5-0.2,0.9-0.2c0.2,0,0.3,0,0.5,0c0.6,0.1,1,0.3,1,0.4 c0,0-0.2,0.4-0.2,0.4c0,0,0,0,0,0c0-0.2-0.4-0.3-0.9-0.4c-0.1,0-0.3,0-0.4,0C20.5,24.2,20.2,24.3,20,24.4"/><path fill="#ad1519" d="M22.3,25.5L22.3,25.5c0,0.1-0.1,0.3-0.1,0.4c0-0.1-0.2-0.2-0.5-0.3c-0.1,0-0.4-0.1-0.6-0.2 c-0.4-0.2-0.7-0.4-0.7-0.4c0,0,0-0.4,0.1-0.4c0,0,0,0,0,0c0,0.1,0.3,0.3,0.8,0.4c0.2,0.1,0.3,0.1,0.4,0.1 C22.1,25.3,22.3,25.5,22.3,25.5L22.3,25.5z"/></g><linearGradient id="IUkWZas~eGmd68aVTThsoa" x1="2" x2="46" y1="1053.95" y2="1053.95" gradientTransform="translate(0 -1030)" gradientUnits="userSpaceOnUse"><stop offset="0" stop-color="#fff" stop-opacity="0"/><stop offset=".013" stop-color="#fff" stop-opacity=".029"/><stop offset=".26" stop-color="#fff" stop-opacity=".6"/><stop offset=".408" stop-color="#fff" stop-opacity=".028"/><stop offset=".415" stop-color="#fff" stop-opacity="0"/><stop offset=".56" stop-color="#fff" stop-opacity="0"/><stop offset=".797" stop-color="#fff" stop-opacity=".6"/><stop offset=".975" stop-color="#fff" stop-opacity=".063"/><stop offset=".996" stop-color="#fff" stop-opacity="0"/></linearGradient><path fill="url(#IUkWZas~eGmd68aVTThsoa)" d="M2,11.4c14.7-5,29.3,5,44,0c0,8.4,0,16.7,0,25.1c-14.7,5-29.3-5-44,0C2,28.2,2,19.8,2,11.4z" opacity=".25"/><linearGradient id="IUkWZas~eGmd68aVTThsob" x1="2" x2="46" y1="1053.95" y2="1053.95" gradientTransform="translate(0 -1030)" gradientUnits="userSpaceOnUse"><stop offset=".004" stop-opacity=".8"/><stop offset=".032" stop-color="#000208" stop-opacity=".677"/><stop offset=".126" stop-color="#00091c" stop-opacity=".27"/><stop offset=".188" stop-color="#000b24" stop-opacity="0"/><stop offset=".359" stop-color="#000b24" stop-opacity=".018"/><stop offset=".396" stop-color="#000718" stop-opacity=".128"/><stop offset=".469" stop-color="#000206" stop-opacity=".344"/><stop offset=".522" stop-opacity=".5"/><stop offset=".597" stop-color="#00030b" stop-opacity=".312"/><stop offset=".715" stop-color="#000b24" stop-opacity=".018"/><stop offset=".848" stop-color="#000b24" stop-opacity=".018"/><stop offset=".902" stop-color="#00081b" stop-opacity=".26"/><stop offset=".989" stop-color="#000104" stop-opacity=".649"/><stop offset="1" stop-opacity=".7"/></linearGradient><path fill="url(#IUkWZas~eGmd68aVTThsob)" d="M2,11.4c14.7-5,29.3,5,44,0c0,8.4,0,16.7,0,25.1c-14.7,5-29.3-5-44,0C2,28.2,2,19.8,2,11.4z" opacity=".7"/></svg>