<svg xmlns="http://www.w3.org/2000/svg"  viewBox="0 0 50 50" width="30px" class="svg" height="30px">    <path d="M4,15v25c0,1.65,1.35,3,3,3h36c1.65,0,3-1.35,3-3V15H4z M29,23.82V32c0,3.31-2.69,6-6,6s-6-2.69-6-6v-5.41l3.71,3.7 c0.39,0.39,0.39,1.03,0,1.42c-0.39,0.39-1.03,0.39-1.42,0L19,31.41V32c0,2.21,1.79,4,4,4s4-1.79,4-4v-8.18c-1.17-0.4-2-1.51-2-2.82 c0-1.66,1.34-3,3-3s3,1.34,3,3C31,22.31,30.17,23.42,29,23.82z M43,7H7c-1.65,0-3,1.35-3,3v3h42v-3C46,8.35,44.65,7,43,7z M8,11 c-0.55,0-1-0.45-1-1s0.45-1,1-1s1,0.45,1,1S8.55,11,8,11z M11,11c-0.55,0-1-0.45-1-1s0.45-1,1-1s1,0.45,1,1S11.55,11,11,11z M14,11 c-0.55,0-1-0.45-1-1s0.45-1,1-1s1,0.45,1,1S14.55,11,14,11z"/></svg>