<svg xmlns="http://www.w3.org/2000/svg"  viewBox="0 0 480.02 480.02" width="30px" height="30px" class="svg"><path fill="#cbe3fa" d="M452.01,40v312c0,17.67-14.33,32-32,32h-360c-17.67,0-32-14.33-32-32V40c0-17.67,14.33-32,32-32h360	C437.68,8,452.01,22.33,452.01,40z"/><path fill="#eef7ff" d="M452.01,40v8h-352c-17.34,0-31.46,13.79-31.98,31c-0.025,0.834-0.023,147.831-0.021,233.125	C68.01,338.186,28.01,339.512,28.01,312V40c0-17.673,14.327-32,32-32h360C437.683,8,452.01,22.327,452.01,40z"/><path fill="#42434d" d="M452.01,40v39h-424V40c0-17.67,14.33-32,32-32h360C437.68,8,452.01,22.33,452.01,40z"/><path fill="#585966" d="M390.129,48H100.01c-17.34,0-31.46,13.79-31.98,31H28.01V40c0-17.673,14.327-32,32-32h330	C417.513,8,416.2,48,390.129,48z"/><path fill="#585966" d="M278,292.57c6.01,6.02,6.01,15.77,0,21.79c-1.06,1.06-19.98,19.97-21.64,21.63l-64.34-64.34	c1.64-1.64,20.59-20.6,21.63-21.64c6.02-6.01,15.77-6.01,21.79,0L278,292.57z"/><path fill="#6e6f80" d="M265.257,305.827L237.44,278.01c-6.02-6.01-15.77-6.01-21.79,0c-0.45,0.45-4.3,4.3-8.63,8.64l-15-15	c1.64-1.64,20.59-20.6,21.63-21.64c6.02-6.01,15.77-6.01,21.79,0L278,292.57C287.363,301.948,273.622,314.191,265.257,305.827z"/><path fill="#585966" d="M159.49,472.02c-57.16,0-103.5-46.34-103.5-103.5c0-71.43,70.47-120.82,137.08-97.92	c30.15,10.32,54.02,34.19,64.34,64.34C280.35,401.66,230.77,472.02,159.49,472.02z"/><path fill="#6e6f80" d="M189.79,306.525c-47.427,5.374-86.794,45.029-92.163,92.445c-2.201,19.438-29.13,22.659-35.684,4.227	c-3.854-10.841-5.953-22.513-5.953-34.676c0-71.43,70.47-120.82,137.08-97.92C212.801,277.356,208.833,304.367,189.79,306.525z"/><path d="M452.01,123c-4.418,0-8,3.582-8,8v221c0,13.234-10.767,24-24,24h-95.517c-4.418,0-8,3.582-8,8s3.582,8,8,8h95.517 c22.056,0,40-17.944,40-40V131C460.01,126.582,456.428,123,452.01,123z"/><path d="M420.01,0h-360c-22.009,0-39.923,17.865-40,39.857c0,0.021,0,312.143,0,312.143c0,18.734,12.618,34.441,30.218,38.798 c10.351,50.843,55.408,89.222,109.262,89.222c59.381,0,105.92-45.727,111.107-101.286c0.41-4.399-2.823-8.298-7.223-8.708 c-4.406-0.414-8.298,2.823-8.709,7.222c-4.616,49.469-45.533,86.772-95.176,86.772c-47.674,0-87.3-35.115-94.375-80.838 c-0.03-0.344-0.074-0.685-0.146-1.017c-5.018-34.921,9.039-69.922,39.007-91.31c53.038-37.852,125.538-12.71,145.864,46.675 c1.647,4.816,7.412,6.931,11.799,4.193c1.228-0.766,0.239,0.085,22.022-21.712c9.113-9.119,9.108-23.97-0.005-33.098 l-16.242-16.242c17.423-16.917,29.738,13.339,59.45,13.339c11.37,0,22.864-4.637,34.177-13.792 c3.435-2.779,3.966-7.817,1.187-11.251c-2.779-3.434-7.817-3.965-11.251-1.186c-36.206,29.295-48.623-14.304-78.712-7.589 c-5.907,1.319-11.331,4.393-16.174,9.156l-15.001-15.001c-6.808-6.796-17.284-8.733-26.071-4.826 c-4.036,1.796-5.854,6.524-4.058,10.561s6.523,5.854,10.562,4.058c2.785-1.239,6.107-0.624,8.259,1.525l42.557,42.556 c2.886,2.891,2.886,7.594,0.004,10.48l-12.083,12.078c-12.792-26.888-36.219-48.036-64.588-57.746 c-73.699-25.339-150.548,31.041-147.592,109.734C40.873,368.579,36.01,360.759,36.01,352V40c0-13.233,10.767-24,24-24h360 c13.233,0,24,10.767,24,24v31H83.332c-4.418,0-8,3.582-8,8s3.582,8,8,8H452.01c4.418,0,8-3.582,8-8V40 C460.01,17.944,442.066,0,420.01,0z"/><path d="M92.01,52c4.418,0,8-3.582,8-8s-3.582-8-8-8h-4c-4.418,0-8,3.582-8,8s3.582,8,8,8H92.01z"/><path d="M142.01,52c4.418,0,8-3.582,8-8s-3.582-8-8-8h-4c-4.418,0-8,3.582-8,8s3.582,8,8,8H142.01z"/><path d="M192.01,52c4.418,0,8-3.582,8-8s-3.582-8-8-8h-4c-4.418,0-8,3.582-8,8s3.582,8,8,8H192.01z"/><path d="M74.01,123c-4.418,0-8,3.582-8,8v56c0,4.418,3.582,8,8,8h19c15.99,0,29-13.009,29-29v-14c0-15.991-13.01-29-29-29H74.01z M106.01,152v14c0,7.168-5.832,13-13,13h-11v-40h11C100.178,139,106.01,144.832,106.01,152z"/><path d="M146.01,123c-4.418,0-8,3.582-8,8v56c0,4.418,3.582,8,8,8h19c15.99,0,29-13.009,29-29v-14c0-15.991-13.01-29-29-29H146.01z M178.01,152v14c0,7.168-5.832,13-13,13h-11v-40h11C172.178,139,178.01,144.832,178.01,152z"/><path d="M209.01,151v16c0,15.439,12.561,28,28,28s28-12.561,28-28v-16c0-15.439-12.561-28-28-28S209.01,135.561,209.01,151z M249.01,151v16c0,6.617-5.383,12-12,12s-12-5.383-12-12v-16c0-6.617,5.383-12,12-12S249.01,144.383,249.01,151z"/><path d="M317.084,179H299.01c-1.103,0-2-0.897-2-2c0-4.418-3.582-8-8-8s-8,3.582-8,8c0,9.925,8.075,18,18,18h18.074 c10.987,0,19.926-8.938,19.926-19.926c0-8.195-4.917-15.458-12.525-18.5l-25.008-10.003c-1.498-0.599-2.467-2.03-2.467-3.645 c0-2.165,1.761-3.926,3.926-3.926h18.074c1.103,0,2,0.897,2,2c0,4.418,3.582,8,8,8s8-3.582,8-8c0-9.925-8.075-18-18-18h-18.074 c-10.987,0-19.926,8.938-19.926,19.926c0,8.196,4.917,15.458,12.525,18.5l25.007,10.003c1.499,0.599,2.468,2.03,2.468,3.645 C321.01,177.239,319.249,179,317.084,179z"/><path d="M120.164,312.453c-13.778,9.68-23.483,23.992-27.328,40.301c-1.015,4.3,1.65,8.608,5.95,9.622 c4.3,1.014,8.608-1.65,9.622-5.951c2.944-12.489,10.386-23.456,20.953-30.88c3.615-2.54,4.487-7.53,1.947-11.145 C128.768,310.784,123.779,309.914,120.164,312.453z"/><path d="M157.27,300.077c-4.416,0.142-7.881,3.837-7.738,8.253c0.14,4.328,3.692,7.742,7.991,7.742 c0.087,0,1.396-0.031,1.967-0.031c4.418,0,8-3.582,8-8s-3.582-8-8-8C158.746,300.042,158.007,300.053,157.27,300.077z"/><path d="M387.353,222.343l-10,10c-3.124,3.124-3.124,8.189,0,11.313c3.126,3.125,8.189,3.124,11.314,0l10-10 c3.124-3.124,3.124-8.189,0-11.313C395.542,219.219,390.478,219.219,387.353,222.343z"/><path d="M342.353,240.657c3.126,3.125,8.189,3.124,11.314,0c3.124-3.124,3.124-8.189,0-11.313l-8.5-8.5 c-3.125-3.124-8.189-3.124-11.314,0c-3.124,3.124-3.124,8.189,0,11.313L342.353,240.657z"/><path d="M381.353,268.343c-3.124,3.124-3.124,8.189,0,11.313l8.5,8.5c3.126,3.125,8.189,3.124,11.314,0 c3.124-3.124,3.124-8.189,0-11.313l-8.5-8.5C389.542,265.219,384.478,265.219,381.353,268.343z"/></svg>