<svg xmlns="http://www.w3.org/2000/svg"  viewBox="0 0 4000 4000" width="30px" height="30px" class="svg"><linearGradient id="R6GFaxa6cnCS4w6m1OvAKa" x1="850.772" x2="3149.228" y1="850.772" y2="3149.228" gradientUnits="userSpaceOnUse"><stop offset=".243" stop-color="#ff5e00"/><stop offset=".63" stop-color="#605e9f"/><stop offset=".818" stop-color="#175ee8"/></linearGradient><path fill="url(#R6GFaxa6cnCS4w6m1OvAKa)" d="M3027.539,750H972.461c-27.889,0-50.578,22.689-50.578,50.578v2398.844	c0,27.889,22.689,50.578,50.578,50.578h2055.078c27.889,0,50.578-22.689,50.578-50.578V800.578	C3078.117,772.689,3055.428,750,3027.539,750z M972.461,793.353h2055.078c3.984,0,7.225,3.241,7.225,7.225v373.326H965.235V800.578	C965.235,796.595,968.476,793.353,972.461,793.353z M3027.539,3206.647H972.461c-3.985,0-7.226-3.241-7.226-7.225V1217.257h2069.529	v1982.165C3034.764,3203.405,3031.523,3206.647,3027.539,3206.647z M2237.712,1082.106c53.202,0,96.482-43.283,96.482-96.483	c0-53.201-43.281-96.483-96.482-96.483c-53.201,0-96.482,43.283-96.482,96.483	C2141.229,1038.823,2184.511,1082.106,2237.712,1082.106z M2237.712,932.493c29.296,0,53.131,23.834,53.131,53.13	s-23.835,53.13-53.131,53.13c-29.296,0-53.13-23.834-53.13-53.13S2208.416,932.493,2237.712,932.493z M2525.718,1082.106	c53.2,0,96.482-43.283,96.482-96.483c0-53.201-43.282-96.483-96.482-96.483c-53.201,0-96.484,43.283-96.484,96.483	C2429.234,1038.823,2472.517,1082.106,2525.718,1082.106z M2525.718,932.493c29.296,0,53.13,23.834,53.13,53.13	s-23.834,53.13-53.13,53.13c-29.296,0-53.13-23.834-53.13-53.13S2496.422,932.493,2525.718,932.493z M2813.722,1082.106	c53.2,0,96.483-43.283,96.483-96.483c0-53.201-43.283-96.483-96.483-96.483c-53.201,0-96.483,43.283-96.483,96.483	C2717.239,1038.823,2760.522,1082.106,2813.722,1082.106z M2813.722,932.493c29.296,0,53.13,23.834,53.13,53.13	s-23.834,53.13-53.13,53.13c-29.296,0-53.13-23.834-53.13-53.13S2784.426,932.493,2813.722,932.493z M1411.114,1689.687	l-120.876-120.875c-4.065-4.066-6.349-9.579-6.349-15.328c0-5.749,2.284-11.262,6.349-15.328l125.871-125.87	c8.465-8.464,22.19-8.465,30.655,0.001c8.465,8.465,8.465,22.189,0,30.655l-110.543,110.542l105.547,105.547	c8.465,8.466,8.465,22.19,0,30.656c-4.232,4.233-9.78,6.349-15.327,6.349S1415.346,1693.92,1411.114,1689.687z M2709.763,1538.156	c8.465,8.466,8.465,22.19,0,30.656l-120.876,120.875c-4.233,4.233-9.78,6.349-15.327,6.349s-11.094-2.116-15.327-6.349	c-8.465-8.466-8.465-22.19,0-30.656l105.547-105.547l-110.543-110.542c-8.465-8.466-8.465-22.19,0-30.656	c8.465-8.465,22.191-8.465,30.656,0L2709.763,1538.156z M1507.969,1693.514l211.008-309.477c6.743-9.89,20.23-12.441,30.12-5.698	c9.891,6.743,12.443,20.229,5.698,30.12l-211.008,309.477c-4.195,6.154-11.002,9.467-17.928,9.467c-4.207,0-8.456-1.22-12.193-3.769	C1503.777,1716.891,1501.226,1703.405,1507.969,1693.514z M1817.521,1662.335l74.233-111.348l-74.233-111.349	c-6.641-9.96-3.949-23.418,6.012-30.059c9.961-6.639,23.419-3.949,30.059,6.013l64.212,96.318l64.213-96.318	c6.64-9.961,20.098-12.654,30.059-6.013c9.961,6.641,12.653,20.099,6.01,30.059l-74.231,111.349l74.231,111.348	c6.642,9.96,3.951,23.418-6.01,30.059c-3.696,2.463-7.873,3.643-12.005,3.643c-7.005,0-13.879-3.389-18.055-9.656l-64.213-96.318	l-64.212,96.318c-4.177,6.265-11.052,9.656-18.056,9.656c-4.131,0-8.308-1.179-12.003-3.643	C1813.572,1685.753,1810.88,1672.295,1817.521,1662.335z M2079.41,1636.111v-1.899c0-11.972,9.705-21.677,21.677-21.677	c11.972,0,21.676,9.705,21.676,21.677v1.899c0,9.138,8.964,16.572,19.982,16.572h51.052c11.018,0,19.981-7.434,19.981-16.572	v-46.876c0-9.138-8.963-16.572-19.981-16.572h-51.052c-34.924,0-63.334-26.883-63.334-59.925v-46.875	c0-33.042,28.41-59.925,63.334-59.925h51.052c34.923,0,63.334,26.883,63.334,59.925c0,11.972-9.705,21.677-21.677,21.677	c-11.972,0-21.677-9.705-21.677-21.677c0-9.138-8.963-16.572-19.981-16.572h-51.052c-11.018,0-19.982,7.434-19.982,16.572v46.875	c0,9.138,8.964,16.572,19.982,16.572h51.052c34.923,0,63.334,26.883,63.334,59.925v46.876c0,33.042-28.412,59.925-63.334,59.925	h-51.052C2107.821,1696.036,2079.41,1669.153,2079.41,1636.111z M2314.822,1636.111v-1.899c0-11.972,9.704-21.677,21.676-21.677	s21.676,9.705,21.676,21.677v1.899c0,9.138,8.964,16.572,19.982,16.572h51.054c11.017,0,19.981-7.434,19.981-16.572v-46.876	c0-9.138-8.964-16.572-19.981-16.572h-51.054c-34.923,0-63.333-26.883-63.333-59.925v-46.875c0-33.042,28.411-59.925,63.333-59.925	h51.054c34.921,0,63.333,26.883,63.333,59.925c0,11.972-9.704,21.677-21.676,21.677c-11.971,0-21.677-9.705-21.677-21.677	c0-9.138-8.964-16.572-19.981-16.572h-51.054c-11.018,0-19.982,7.434-19.982,16.572v46.875c0,9.138,8.964,16.572,19.982,16.572	h51.054c34.921,0,63.333,26.883,63.333,59.925v46.876c0,33.042-28.412,59.925-63.333,59.925h-51.054	C2343.232,1696.036,2314.822,1669.153,2314.822,1636.111z M2500.991,2474.349c-4.066-4.066-9.578-6.35-15.328-6.35h-166.264	v-101.117h55.952c28.452,0,51.599-23.148,51.599-51.6v-147.496l83.152-83.151c8.465-8.466,8.466-22.19,0-30.655	c-8.465-8.467-22.19-8.464-30.654-0.001l-89.502,89.501c-4.066,4.066-6.349,9.579-6.349,15.328v156.474	c0,4.547-3.699,8.247-8.247,8.247h-55.952v-5.852c0-120.595-67.196-225.77-166.098-280.114v-31.156	c0-40.955-15.921-79.433-44.833-108.344c-28.993-28.992-67.514-44.959-108.468-44.959c-84.531,0-153.301,68.772-153.301,153.302	v31.156c-98.903,54.344-166.098,159.519-166.098,280.114v5.852h-55.952c-4.547,0-8.246-3.699-8.246-8.247v-156.474	c0-5.749-2.283-11.262-6.349-15.328l-89.501-89.501c-8.465-8.465-22.19-8.465-30.655,0c-8.465,8.466-8.465,22.19,0,30.656	l83.152,83.151v147.496c0,28.452,23.147,51.6,51.599,51.6h55.952v101.117h-166.264c-5.75,0-11.262,2.284-15.328,6.35	l-112.463,112.463c-8.465,8.466-8.465,22.19,0,30.656c4.233,4.232,9.78,6.349,15.328,6.349c5.547,0,11.094-2.116,15.327-6.35	l106.115-106.115h157.286v29.185c0,25.826,1.841,51.262,5.435,76.252h-60.342c-28.453,0-51.6,23.148-51.6,51.6v232.064	l-109.606,109.606c-8.465,8.466-8.465,22.19,0,30.656c4.232,4.232,9.78,6.349,15.327,6.349c5.548,0,11.096-2.116,15.328-6.349	l115.956-115.956c4.064-4.066,6.349-9.579,6.349-15.328v-241.042c0-4.547,3.699-8.247,8.246-8.247h68.48	c8.266,35.569,20.258,70.093,36.011,103.323c49.338,104.076,152.726,168.729,269.815,168.729l0,0l0,0c0,0,0,0,0.001,0	c117.088,0,220.475-64.653,269.813-168.729c15.753-33.23,27.745-67.754,36.011-103.323h68.48c4.547,0,8.247,3.699,8.247,8.247	v241.042c0,5.749,2.284,11.262,6.349,15.328l103.002,103.002c4.232,4.232,9.779,6.349,15.328,6.349	c5.545,0,11.095-2.117,15.327-6.349c8.465-8.466,8.465-22.19,0-30.656l-96.653-96.653v-232.064c0-28.452-23.147-51.6-51.6-51.6	h-60.342c3.594-24.991,5.435-50.427,5.435-76.252v-29.185h157.286l106.115,106.115c4.234,4.234,9.779,6.35,15.327,6.35	c5.548-0.001,11.095-2.117,15.328-6.349c8.465-8.466,8.465-22.19,0-30.656L2500.991,2474.349z M1890.051,2006.406	c0-60.626,49.323-109.949,109.949-109.949c29.375,0,57.008,11.457,77.813,32.261c20.723,20.722,32.135,48.312,32.135,77.688v11.379	c-34.295-12.614-71.332-19.509-109.949-19.509s-75.653,6.895-109.949,19.509V2006.406z M2000,2041.629h0.001	c152.212,0,276.047,123.834,276.047,276.047v22.833h-552.097v-22.833C1723.952,2165.462,1847.788,2041.629,2000,2041.629z M1769.359,2744.894c-30.13-63.554-45.407-132.31-45.407-204.357v-156.674h254.373v504.075	C1887.209,2880.594,1808.385,2827.218,1769.359,2744.894z M2021.676,2887.938v-504.075h254.373v156.674	c0,72.047-15.278,140.803-45.407,204.357C2191.614,2827.218,2112.791,2880.593,2021.676,2887.938z"/></svg>