<svg xmlns="http://www.w3.org/2000/svg"  viewBox="0 0 48 48" width="48px" height="48px" baseProfile="basic"><path fill="#0b77b8" d="M24,4.004c-0.588-0.012-9.196-0.135-15.023,2.953l0.049,21.354c0,0-0.344,3.739,6.003,8.611L24,44	V4.004z"/><path fill="#286591" d="M24,4.004c0.588-0.012,9.196-0.135,15.023,2.953l-0.049,21.354c0,0,0.344,3.739-6.003,8.611L24,44	V4.004z"/><path fill="#fff" d="M24.022,15.788l-7.339-6.772H11.97v16.081c0,0-0.147,1.547,0.457,3.342 c0.314,0.933,0.889,1.911,1.671,2.822C14.789,32.066,17,33.941,17,33.941V16.205l4.008,4.369V28l3.007-0.003h0.016"/><path fill="#fff" d="M24.038,15.788l7.339-6.772h4.607v16.081c0,0,0.147,1.547-0.457,3.342 c-0.314,0.933-0.783,1.911-1.564,2.822c-0.691,0.805-2.935,2.751-2.935,2.751V16.275l-4.078,4.299V28l-2.903-0.003H24.03"/></svg>