<svg xmlns="http://www.w3.org/2000/svg"  viewBox="0 0 32 32" width="30px" height="30px" class="svg"><path d="M 14.017578 2 C 13.464878 2 13.017578 2.4473 13.017578 3 L 13.017578 3.6835938 C 12.683578 3.8437937 12.364247 4.0282813 12.060547 4.2382812 L 11.486328 3.9042969 C 11.255828 3.7704969 10.979456 3.7343344 10.722656 3.8027344 C 10.464856 3.8721344 10.246081 4.0409844 10.113281 4.2714844 L 8.1308594 7.7363281 C 7.8584594 8.2138281 8.0234469 8.8212562 8.4980469 9.0976562 L 9.0761719 9.4355469 C 9.0595719 9.6259469 9.0527344 9.8125 9.0527344 10 C 9.0527344 10.1875 9.0595719 10.375906 9.0761719 10.566406 L 8.4960938 10.904297 C 8.0214938 11.180597 7.8583594 11.788125 8.1308594 12.265625 L 10.113281 15.730469 C 10.246081 15.960969 10.464856 16.129919 10.722656 16.199219 C 10.979456 16.267519 11.255828 16.232456 11.486328 16.097656 L 12.642578 15.423828 C 13.119178 15.145428 13.281206 14.532187 13.003906 14.054688 C 12.724606 13.578088 12.115266 13.416959 11.634766 13.693359 L 11.349609 13.861328 L 10.361328 12.132812 L 10.660156 11.958984 C 11.024356 11.747084 11.214825 11.330116 11.140625 10.916016 C 11.081025 10.591816 11.052734 10.292 11.052734 10 C 11.052734 9.708 11.081125 9.4082844 11.140625 9.0839844 C 11.214925 8.6698844 11.024456 8.2529156 10.660156 8.0410156 L 10.361328 7.8671875 L 11.349609 6.1386719 L 11.634766 6.3046875 C 12.005866 6.5195875 12.471669 6.4775656 12.792969 6.1972656 C 13.251969 5.8007656 13.777316 5.4951625 14.353516 5.2890625 C 14.752016 5.1474625 15.017578 4.7705563 15.017578 4.3476562 L 15.017578 4 L 16.982422 4 L 16.982422 4.3496094 C 16.982422 4.7724094 17.248084 5.1494156 17.646484 5.2910156 C 18.222584 5.4971156 18.748031 5.8027188 19.207031 6.1992188 C 19.530231 6.4785188 19.994134 6.5195406 20.365234 6.3066406 L 20.650391 6.1386719 L 21.638672 7.8671875 L 21.339844 8.0410156 C 20.975644 8.2529156 20.785175 8.6698844 20.859375 9.0839844 C 20.918975 9.4081844 20.947266 9.708 20.947266 10 C 20.947266 10.292 20.918975 10.591816 20.859375 10.916016 C 20.785075 11.330116 20.975544 11.747084 21.339844 11.958984 L 21.638672 12.132812 L 20.650391 13.861328 L 20.365234 13.693359 C 19.886634 13.417059 19.275394 13.578088 18.996094 14.054688 C 18.718794 14.532288 18.880822 15.145528 19.357422 15.423828 L 20.513672 16.097656 C 20.667972 16.187456 20.841778 16.232422 21.017578 16.232422 C 21.104478 16.232422 21.192344 16.219766 21.277344 16.197266 C 21.535144 16.127866 21.753919 15.959016 21.886719 15.728516 L 23.869141 12.263672 C 24.141641 11.786172 23.978506 11.178744 23.503906 10.902344 L 22.923828 10.564453 C 22.940428 10.374053 22.947266 10.1875 22.947266 10 C 22.947266 9.8125 22.938675 9.6240938 22.921875 9.4335938 L 23.501953 9.0957031 C 23.976553 8.8194031 24.139688 8.211875 23.867188 7.734375 L 21.884766 4.2695312 C 21.751966 4.0390312 21.533191 3.8700813 21.275391 3.8007812 C 21.017591 3.7324812 20.745072 3.7685438 20.513672 3.9023438 L 19.939453 4.2382812 C 19.635753 4.0282812 19.316422 3.8418406 18.982422 3.6816406 L 18.982422 3 C 18.982422 2.4473 18.535122 2 17.982422 2 L 14.017578 2 z M 16.0625 7 C 14.4082 7 13.0625 8.3457 13.0625 10 C 13.0625 11.6543 14.4082 13 16.0625 13 C 17.7168 13 19.0625 11.6543 19.0625 10 C 19.0625 8.3457 17.7168 7 16.0625 7 z M 16.0625 9 C 16.6143 9 17.0625 9.4482 17.0625 10 C 17.0625 10.5518 16.6143 11 16.0625 11 C 15.5107 11 15.0625 10.5518 15.0625 10 C 15.0625 9.4482 15.5107 9 16.0625 9 z M 14 15 C 13.4473 15 13 15.4473 13 16 L 13 20 L 12 20 C 11.952073 20 11.911354 20.02084 11.865234 20.027344 C 11.427769 18.292884 9.8686541 17 8 17 C 5.7939 17 4 18.7939 4 21 C 4 23.2061 5.7939 25 8 25 C 9.8686541 25 11.427769 23.707116 11.865234 21.972656 C 11.911354 21.97916 11.952073 22 12 22 L 14 22 C 14.5527 22 15 21.5527 15 21 L 15 16 C 15 15.4473 14.5527 15 14 15 z M 8 25 L 6.0097656 25 C 3.7978656 25 2 26.7939 2 29 C 2 29.5527 2.4473 30 3 30 L 13 30 C 13.5527 30 14 29.5527 14 29 C 14 26.7939 12.200281 25 9.9882812 25 L 8 25 z M 18 15 C 17.4473 15 17 15.4473 17 16 L 17 19 C 17 19.5527 17.4473 20 18 20 L 22 20 L 22 21 L 18 21 C 17.4473 21 17 21.4473 17 22 L 17 27 C 16.4473 27 16 27.4473 16 28 C 16 29.1025 16.893534 30 17.990234 30 L 28.009766 30 C 29.106466 30 30 29.1025 30 28 C 30 27.4473 29.5527 27 29 27 L 29 22 C 29 21.4473 28.5527 21 28 21 L 24 21 L 24 19 C 24 18.4473 23.5527 18 23 18 L 19 18 L 19 16 C 19 15.4473 18.5527 15 18 15 z M 8 19 C 9.1025 19 10 19.8975 10 21 C 10 22.1025 9.1025 23 8 23 C 6.8975 23 6 22.1025 6 21 C 6 19.8975 6.8975 19 8 19 z M 19 23 L 27 23 L 27 27 L 19 27 L 19 23 z M 6.0097656 27 L 9.9882812 27 C 10.731481 27 11.381869 27.4023 11.730469 28 L 4.2695312 28 C 4.6182313 27.4023 5.2666656 27 6.0097656 27 z"/></svg>