<svg xmlns="http://www.w3.org/2000/svg"  viewBox="0 0 24 24" class="svg" width="30px" height="30px"><path fill="#09467D" d="M1.998,4.441c1.103,0,1.997-0.883,1.997-1.97c0-1.088-0.894-1.971-1.997-1.971C0.895,0.5,0,1.383,0,2.471	C0,3.558,0.895,4.441,1.998,4.441L1.998,4.441z"/><path fill="#09467D" d="M24,10.853c0-3.353-2.755-6.07-6.154-6.071H11.18C7.781,4.782,5.027,7.5,5.026,10.853v6.577	c0,3.353,2.754,6.07,6.153,6.07h6.667c3.399,0,6.154-2.718,6.154-6.07V10.853L24,10.853z M9.702,12.471	c-1.379,0-2.497-1.102-2.497-2.463c0-1.36,1.118-2.464,2.497-2.464c1.379,0,2.497,1.103,2.497,2.464	C12.198,11.368,11.081,12.471,9.702,12.471L9.702,12.471z M17.671,21.504c-2.206,0-3.995-1.766-3.995-3.942s1.789-3.941,3.995-3.941	c2.205,0,3.995,1.765,3.995,3.941S19.876,21.504,17.671,21.504L17.671,21.504z"/><path fill="#DEDEDE" d="M14.693,14.935c-0.633,0.697-1.018,1.618-1.018,2.627c0,2.176,1.789,3.942,3.995,3.942	c1.003,0,1.921-0.366,2.622-0.969L14.693,14.935L14.693,14.935z"/><path fill="#DEDEDE" d="M7.981,8.223c-0.478,0.449-0.776,1.083-0.776,1.785c0,1.361,1.118,2.463,2.497,2.463	c0.7,0,1.332-0.284,1.786-0.741L7.981,8.223L7.981,8.223z"/><path fill="#083D6D" d="M0.717,0.959C0.279,1.32,0,1.864,0,2.471c0,1.088,0.895,1.97,1.998,1.97c0.606,0,1.148-0.266,1.515-0.686	L0.717,0.959L0.717,0.959z"/><path fill="#083D6D" d="M6.579,6.821c-0.966,1.072-1.552,2.484-1.553,4.031v6.577c0,3.353,2.754,6.07,6.153,6.07h6.667	c1.516,0,2.903-0.54,3.975-1.436l-1.529-1.529c-0.702,0.603-1.619,0.969-2.622,0.969c-2.206,0-3.995-1.766-3.995-3.942	c0-1.009,0.385-1.93,1.018-2.627l-3.206-3.206c-0.453,0.457-1.086,0.741-1.786,0.741c-1.379,0-2.497-1.102-2.497-2.463	c0-0.702,0.298-1.336,0.776-1.785L6.579,6.821L6.579,6.821z"/></svg>